<svg width="167" height="167" viewBox="0 0 167 167" fill="none" xmlns="http://www.w3.org/2000/svg">
<path d="M48.0141 58.252H46.811V59.455H48.0141V58.252Z" fill="black"/>
<path d="M49.2155 58.252H48.0125V59.455H49.2155V58.252Z" fill="black"/>
<path d="M50.4186 58.252H49.2156V59.455H50.4186V58.252Z" fill="black"/>
<path d="M48.0141 59.4551H46.811V60.6581H48.0141V59.4551Z" fill="black"/>
<path d="M50.4186 59.4551H49.2156V60.6581H50.4186V59.4551Z" fill="black"/>
<path d="M46.8112 60.6582H45.6082V61.8612H46.8112V60.6582Z" fill="black"/>
<path d="M48.0141 60.6582H46.811V61.8612H48.0141V60.6582Z" fill="black"/>
<path d="M50.4186 60.6582H49.2156V61.8612H50.4186V60.6582Z" fill="black"/>
<path d="M51.6215 60.6582H50.4185V61.8612H51.6215V60.6582Z" fill="black"/>
<path d="M46.8112 61.8613H45.6082V63.0643H46.8112V61.8613Z" fill="black"/>
<path d="M51.6215 61.8613H50.4185V63.0643H51.6215V61.8613Z" fill="black"/>
<path d="M46.8112 63.0645H45.6082V64.2675H46.8112V63.0645Z" fill="black"/>
<path d="M51.6215 63.0645H50.4185V64.2675H51.6215V63.0645Z" fill="black"/>
<path d="M52.8246 63.0645H51.6216V64.2675H52.8246V63.0645Z" fill="black"/>
<path d="M61.2457 63.0645H60.0427V64.2675H61.2457V63.0645Z" fill="black"/>
<path d="M62.4489 63.0645H61.2458V64.2675H62.4489V63.0645Z" fill="black"/>
<path d="M63.6518 63.0645H62.4487V64.2675H63.6518V63.0645Z" fill="black"/>
<path d="M64.8549 63.0645H63.6519V64.2675H64.8549V63.0645Z" fill="black"/>
<path d="M66.0578 63.0645H64.8547V64.2675H66.0578V63.0645Z" fill="black"/>
<path d="M46.8112 64.2666H45.6082V65.4696H46.8112V64.2666Z" fill="black"/>
<path d="M52.8246 64.2666H51.6216V65.4696H52.8246V64.2666Z" fill="black"/>
<path d="M60.0426 64.2666H58.8396V65.4696H60.0426V64.2666Z" fill="black"/>
<path d="M61.2457 64.2666H60.0427V65.4696H61.2457V64.2666Z" fill="black"/>
<path d="M66.0578 64.2666H64.8547V65.4696H66.0578V64.2666Z" fill="black"/>
<path d="M67.2592 64.2666H66.0562V65.4696H67.2592V64.2666Z" fill="black"/>
<path d="M68.4623 64.2666H67.2593V65.4696H68.4623V64.2666Z" fill="black"/>
<path d="M46.8112 65.4697H45.6082V66.6727H46.8112V65.4697Z" fill="black"/>
<path d="M52.8246 65.4697H51.6216V66.6727H52.8246V65.4697Z" fill="black"/>
<path d="M60.0426 65.4697H58.8396V66.6727H60.0426V65.4697Z" fill="black"/>
<path d="M68.4623 65.4697H67.2593V66.6727H68.4623V65.4697Z" fill="black"/>
<path d="M69.6654 65.4697H68.4624V66.6727H69.6654V65.4697Z" fill="black"/>
<path d="M46.8112 66.6738H45.6082V67.8768H46.8112V66.6738Z" fill="black"/>
<path d="M52.8246 66.6738H51.6216V67.8768H52.8246V66.6738Z" fill="black"/>
<path d="M57.6366 66.6738H56.4336V67.8768H57.6366V66.6738Z" fill="black"/>
<path d="M58.8397 66.6738H57.6367V67.8768H58.8397V66.6738Z" fill="black"/>
<path d="M60.0426 66.6738H58.8396V67.8768H60.0426V66.6738Z" fill="black"/>
<path d="M69.6654 66.6738H68.4624V67.8768H69.6654V66.6738Z" fill="black"/>
<path d="M46.8112 67.877H45.6082V69.08H46.8112V67.877Z" fill="black"/>
<path d="M52.8246 67.877H51.6216V69.08H52.8246V67.877Z" fill="black"/>
<path d="M56.4335 67.877H55.2305V69.08H56.4335V67.877Z" fill="black"/>
<path d="M57.6366 67.877H56.4336V69.08H57.6366V67.877Z" fill="black"/>
<path d="M69.6654 67.877H68.4624V69.08H69.6654V67.877Z" fill="black"/>
<path d="M46.8112 69.0771H45.6082V70.2802H46.8112V69.0771Z" fill="black"/>
<path d="M52.8246 69.0771H51.6216V70.2802H52.8246V69.0771Z" fill="black"/>
<path d="M56.4335 69.0771H55.2305V70.2802H56.4335V69.0771Z" fill="black"/>
<path d="M64.8549 69.0771H63.6519V70.2802H64.8549V69.0771Z" fill="black"/>
<path d="M66.0578 69.0771H64.8547V70.2802H66.0578V69.0771Z" fill="black"/>
<path d="M67.2592 69.0771H66.0562V70.2802H67.2592V69.0771Z" fill="black"/>
<path d="M68.4623 69.0771H67.2593V70.2802H68.4623V69.0771Z" fill="black"/>
<path d="M69.6654 69.0771H68.4624V70.2802H69.6654V69.0771Z" fill="black"/>
<path d="M79.2894 69.0771H78.0864V70.2802H79.2894V69.0771Z" fill="black"/>
<path d="M80.4926 69.0771H79.2896V70.2802H80.4926V69.0771Z" fill="black"/>
<path d="M86.506 69.0771H85.303V70.2802H86.506V69.0771Z" fill="black"/>
<path d="M87.7091 69.0771H86.5061V70.2802H87.7091V69.0771Z" fill="black"/>
<path d="M88.912 69.0771H87.709V70.2802H88.912V69.0771Z" fill="black"/>
<path d="M46.8112 70.2803H45.6082V71.4833H46.8112V70.2803Z" fill="black"/>
<path d="M52.8246 70.2803H51.6216V71.4833H52.8246V70.2803Z" fill="black"/>
<path d="M55.2306 70.2803H54.0276V71.4833H55.2306V70.2803Z" fill="black"/>
<path d="M56.4335 70.2803H55.2305V71.4833H56.4335V70.2803Z" fill="black"/>
<path d="M62.4489 70.2803H61.2458V71.4833H62.4489V70.2803Z" fill="black"/>
<path d="M63.6518 70.2803H62.4487V71.4833H63.6518V70.2803Z" fill="black"/>
<path d="M64.8549 70.2803H63.6519V71.4833H64.8549V70.2803Z" fill="black"/>
<path d="M69.6654 70.2803H68.4624V71.4833H69.6654V70.2803Z" fill="black"/>
<path d="M70.8683 70.2803H69.6653V71.4833H70.8683V70.2803Z" fill="black"/>
<path d="M78.0863 70.2803H76.8833V71.4833H78.0863V70.2803Z" fill="black"/>
<path d="M79.2894 70.2803H78.0864V71.4833H79.2894V70.2803Z" fill="black"/>
<path d="M81.6955 70.2803H80.4924V71.4833H81.6955V70.2803Z" fill="black"/>
<path d="M85.3046 70.2803H84.1016V71.4833H85.3046V70.2803Z" fill="black"/>
<path d="M90.1151 70.2803H88.9121V71.4833H90.1151V70.2803Z" fill="black"/>
<path d="M45.608 71.4844H44.405V72.6874H45.608V71.4844Z" fill="black"/>
<path d="M46.8112 71.4844H45.6082V72.6874H46.8112V71.4844Z" fill="black"/>
<path d="M51.6215 71.4844H50.4185V72.6874H51.6215V71.4844Z" fill="black"/>
<path d="M52.8246 71.4844H51.6216V72.6874H52.8246V71.4844Z" fill="black"/>
<path d="M55.2306 71.4844H54.0276V72.6874H55.2306V71.4844Z" fill="black"/>
<path d="M61.2457 71.4844H60.0427V72.6874H61.2457V71.4844Z" fill="black"/>
<path d="M62.4489 71.4844H61.2458V72.6874H62.4489V71.4844Z" fill="black"/>
<path d="M70.8683 71.4844H69.6653V72.6874H70.8683V71.4844Z" fill="black"/>
<path d="M72.0714 71.4844H70.8684V72.6874H72.0714V71.4844Z" fill="black"/>
<path d="M78.0863 71.4844H76.8833V72.6874H78.0863V71.4844Z" fill="black"/>
<path d="M82.8986 71.4844H81.6956V72.6874H82.8986V71.4844Z" fill="black"/>
<path d="M84.1015 71.4844H82.8984V72.6874H84.1015V71.4844Z" fill="black"/>
<path d="M90.1151 71.4844H88.9121V72.6874H90.1151V71.4844Z" fill="black"/>
<path d="M45.608 72.6875H44.405V73.8905H45.608V72.6875Z" fill="black"/>
<path d="M51.6215 72.6875H50.4185V73.8905H51.6215V72.6875Z" fill="black"/>
<path d="M55.2306 72.6875H54.0276V73.8905H55.2306V72.6875Z" fill="black"/>
<path d="M61.2457 72.6875H60.0427V73.8905H61.2457V72.6875Z" fill="black"/>
<path d="M72.0714 72.6875H70.8684V73.8905H72.0714V72.6875Z" fill="black"/>
<path d="M78.0863 72.6875H76.8833V73.8905H78.0863V72.6875Z" fill="black"/>
<path d="M82.8986 72.6875H81.6956V73.8905H82.8986V72.6875Z" fill="black"/>
<path d="M84.1015 72.6875H82.8984V73.8905H84.1015V72.6875Z" fill="black"/>
<path d="M90.1151 72.6875H88.9121V73.8905H90.1151V72.6875Z" fill="black"/>
<path d="M94.9271 72.6875H93.7241V73.8905H94.9271V72.6875Z" fill="black"/>
<path d="M45.608 73.8896H44.405V75.0927H45.608V73.8896Z" fill="black"/>
<path d="M51.6215 73.8896H50.4185V75.0927H51.6215V73.8896Z" fill="black"/>
<path d="M54.0277 73.8896H52.8247V75.0927H54.0277V73.8896Z" fill="black"/>
<path d="M55.2306 73.8896H54.0276V75.0927H55.2306V73.8896Z" fill="black"/>
<path d="M60.0426 73.8896H58.8396V75.0927H60.0426V73.8896Z" fill="black"/>
<path d="M61.2457 73.8896H60.0427V75.0927H61.2457V73.8896Z" fill="black"/>
<path d="M66.0578 73.8896H64.8547V75.0927H66.0578V73.8896Z" fill="black"/>
<path d="M67.2592 73.8896H66.0562V75.0927H67.2592V73.8896Z" fill="black"/>
<path d="M68.4623 73.8896H67.2593V75.0927H68.4623V73.8896Z" fill="black"/>
<path d="M69.6654 73.8896H68.4624V75.0927H69.6654V73.8896Z" fill="black"/>
<path d="M70.8683 73.8896H69.6653V75.0927H70.8683V73.8896Z" fill="black"/>
<path d="M72.0714 73.8896H70.8684V75.0927H72.0714V73.8896Z" fill="black"/>
<path d="M73.2743 73.8896H72.0713V75.0927H73.2743V73.8896Z" fill="black"/>
<path d="M78.0863 73.8896H76.8833V75.0927H78.0863V73.8896Z" fill="black"/>
<path d="M84.1015 73.8896H82.8984V75.0927H84.1015V73.8896Z" fill="black"/>
<path d="M90.1151 73.8896H88.9121V75.0927H90.1151V73.8896Z" fill="black"/>
<path d="M94.9271 73.8896H93.7241V75.0927H94.9271V73.8896Z" fill="black"/>
<path d="M44.4049 75.0928H43.2019V76.2958H44.4049V75.0928Z" fill="black"/>
<path d="M45.608 75.0928H44.405V76.2958H45.608V75.0928Z" fill="black"/>
<path d="M51.6215 75.0928H50.4185V76.2958H51.6215V75.0928Z" fill="black"/>
<path d="M54.0277 75.0928H52.8247V76.2958H54.0277V75.0928Z" fill="black"/>
<path d="M60.0426 75.0928H58.8396V76.2958H60.0426V75.0928Z" fill="black"/>
<path d="M64.8549 75.0928H63.6519V76.2958H64.8549V75.0928Z" fill="black"/>
<path d="M66.0578 75.0928H64.8547V76.2958H66.0578V75.0928Z" fill="black"/>
<path d="M73.2743 75.0928H72.0713V76.2958H73.2743V75.0928Z" fill="black"/>
<path d="M74.4774 75.0928H73.2744V76.2958H74.4774V75.0928Z" fill="black"/>
<path d="M78.0863 75.0928H76.8833V76.2958H78.0863V75.0928Z" fill="black"/>
<path d="M84.1015 75.0928H82.8984V76.2958H84.1015V75.0928Z" fill="black"/>
<path d="M88.912 75.0928H87.709V76.2958H88.912V75.0928Z" fill="black"/>
<path d="M93.724 75.0928H92.521V76.2958H93.724V75.0928Z" fill="black"/>
<path d="M94.9271 75.0928H93.7241V76.2958H94.9271V75.0928Z" fill="black"/>
<path d="M44.4049 76.2959H43.2019V77.4989H44.4049V76.2959Z" fill="black"/>
<path d="M51.6215 76.2959H50.4185V77.4989H51.6215V76.2959Z" fill="black"/>
<path d="M54.0277 76.2959H52.8247V77.4989H54.0277V76.2959Z" fill="black"/>
<path d="M60.0426 76.2959H58.8396V77.4989H60.0426V76.2959Z" fill="black"/>
<path d="M64.8549 76.2959H63.6519V77.4989H64.8549V76.2959Z" fill="black"/>
<path d="M74.4774 76.2959H73.2744V77.4989H74.4774V76.2959Z" fill="black"/>
<path d="M78.0863 76.2959H76.8833V77.4989H78.0863V76.2959Z" fill="black"/>
<path d="M79.2894 76.2959H78.0864V77.4989H79.2894V76.2959Z" fill="black"/>
<path d="M84.1015 76.2959H82.8984V77.4989H84.1015V76.2959Z" fill="black"/>
<path d="M85.3046 76.2959H84.1016V77.4989H85.3046V76.2959Z" fill="black"/>
<path d="M88.912 76.2959H87.709V77.4989H88.912V76.2959Z" fill="black"/>
<path d="M93.724 76.2959H92.521V77.4989H93.724V76.2959Z" fill="black"/>
<path d="M44.4049 77.499H43.2019V78.702H44.4049V77.499Z" fill="black"/>
<path d="M51.6215 77.499H50.4185V78.702H51.6215V77.499Z" fill="black"/>
<path d="M52.8246 77.499H51.6216V78.702H52.8246V77.499Z" fill="black"/>
<path d="M54.0277 77.499H52.8247V78.702H54.0277V77.499Z" fill="black"/>
<path d="M60.0426 77.499H58.8396V78.702H60.0426V77.499Z" fill="black"/>
<path d="M63.6518 77.499H62.4487V78.702H63.6518V77.499Z" fill="black"/>
<path d="M64.8549 77.499H63.6519V78.702H64.8549V77.499Z" fill="black"/>
<path d="M74.4774 77.499H73.2744V78.702H74.4774V77.499Z" fill="black"/>
<path d="M79.2894 77.499H78.0864V78.702H79.2894V77.499Z" fill="black"/>
<path d="M85.3046 77.499H84.1016V78.702H85.3046V77.499Z" fill="black"/>
<path d="M86.506 77.499H85.303V78.702H86.506V77.499Z" fill="black"/>
<path d="M87.7091 77.499H86.5061V78.702H87.7091V77.499Z" fill="black"/>
<path d="M88.912 77.499H87.709V78.702H88.912V77.499Z" fill="black"/>
<path d="M93.724 77.499H92.521V78.702H93.724V77.499Z" fill="black"/>
<path d="M44.4049 78.7021H43.2019V79.9052H44.4049V78.7021Z" fill="black"/>
<path d="M52.8246 78.7021H51.6216V79.9052H52.8246V78.7021Z" fill="black"/>
<path d="M54.0277 78.7021H52.8247V79.9052H54.0277V78.7021Z" fill="black"/>
<path d="M55.2306 78.7021H54.0276V79.9052H55.2306V78.7021Z" fill="black"/>
<path d="M57.6366 78.7021H56.4336V79.9052H57.6366V78.7021Z" fill="black"/>
<path d="M58.8397 78.7021H57.6367V79.9052H58.8397V78.7021Z" fill="black"/>
<path d="M60.0426 78.7021H58.8396V79.9052H60.0426V78.7021Z" fill="black"/>
<path d="M62.4489 78.7021H61.2458V79.9052H62.4489V78.7021Z" fill="black"/>
<path d="M63.6518 78.7021H62.4487V79.9052H63.6518V78.7021Z" fill="black"/>
<path d="M74.4774 78.7021H73.2744V79.9052H74.4774V78.7021Z" fill="black"/>
<path d="M79.2894 78.7021H78.0864V79.9052H79.2894V78.7021Z" fill="black"/>
<path d="M80.4926 78.7021H79.2896V79.9052H80.4926V78.7021Z" fill="black"/>
<path d="M86.506 78.7021H85.303V79.9052H86.506V78.7021Z" fill="black"/>
<path d="M87.7091 78.7021H86.5061V79.9052H87.7091V78.7021Z" fill="black"/>
<path d="M88.912 78.7021H87.709V79.9052H88.912V78.7021Z" fill="black"/>
<path d="M93.724 78.7021H92.521V79.9052H93.724V78.7021Z" fill="black"/>
<path d="M44.4049 79.9053H43.2019V81.1083H44.4049V79.9053Z" fill="black"/>
<path d="M52.8246 79.9053H51.6216V81.1083H52.8246V79.9053Z" fill="black"/>
<path d="M55.2306 79.9053H54.0276V81.1083H55.2306V79.9053Z" fill="black"/>
<path d="M56.4335 79.9053H55.2305V81.1083H56.4335V79.9053Z" fill="black"/>
<path d="M57.6366 79.9053H56.4336V81.1083H57.6366V79.9053Z" fill="black"/>
<path d="M62.4489 79.9053H61.2458V81.1083H62.4489V79.9053Z" fill="black"/>
<path d="M73.2743 79.9053H72.0713V81.1083H73.2743V79.9053Z" fill="black"/>
<path d="M74.4774 79.9053H73.2744V81.1083H74.4774V79.9053Z" fill="black"/>
<path d="M79.2894 79.9053H78.0864V81.1083H79.2894V79.9053Z" fill="black"/>
<path d="M80.4926 79.9053H79.2896V81.1083H80.4926V79.9053Z" fill="black"/>
<path d="M81.6955 79.9053H80.4924V81.1083H81.6955V79.9053Z" fill="black"/>
<path d="M88.912 79.9053H87.709V81.1083H88.912V79.9053Z" fill="black"/>
<path d="M90.1151 79.9053H88.9121V81.1083H90.1151V79.9053Z" fill="black"/>
<path d="M93.724 79.9053H92.521V81.1083H93.724V79.9053Z" fill="black"/>
<path d="M43.2018 81.1074H41.9988V82.3104H43.2018V81.1074Z" fill="black"/>
<path d="M44.4049 81.1074H43.2019V82.3104H44.4049V81.1074Z" fill="black"/>
<path d="M52.8246 81.1074H51.6216V82.3104H52.8246V81.1074Z" fill="black"/>
<path d="M57.6366 81.1074H56.4336V82.3104H57.6366V81.1074Z" fill="black"/>
<path d="M61.2457 81.1074H60.0427V82.3104H61.2457V81.1074Z" fill="black"/>
<path d="M62.4489 81.1074H61.2458V82.3104H62.4489V81.1074Z" fill="black"/>
<path d="M67.2592 81.1074H66.0562V82.3104H67.2592V81.1074Z" fill="black"/>
<path d="M68.4623 81.1074H67.2593V82.3104H68.4623V81.1074Z" fill="black"/>
<path d="M69.6654 81.1074H68.4624V82.3104H69.6654V81.1074Z" fill="black"/>
<path d="M70.8683 81.1074H69.6653V82.3104H70.8683V81.1074Z" fill="black"/>
<path d="M73.2743 81.1074H72.0713V82.3104H73.2743V81.1074Z" fill="black"/>
<path d="M76.8834 81.1074H75.6804V82.3104H76.8834V81.1074Z" fill="black"/>
<path d="M78.0863 81.1074H76.8833V82.3104H78.0863V81.1074Z" fill="black"/>
<path d="M79.2894 81.1074H78.0864V82.3104H79.2894V81.1074Z" fill="black"/>
<path d="M81.6955 81.1074H80.4924V82.3104H81.6955V81.1074Z" fill="black"/>
<path d="M82.8986 81.1074H81.6956V82.3104H82.8986V81.1074Z" fill="black"/>
<path d="M90.1151 81.1074H88.9121V82.3104H90.1151V81.1074Z" fill="black"/>
<path d="M91.3182 81.1074H90.1152V82.3104H91.3182V81.1074Z" fill="black"/>
<path d="M93.724 81.1074H92.521V82.3104H93.724V81.1074Z" fill="black"/>
<path d="M94.9271 81.1074H93.7241V82.3104H94.9271V81.1074Z" fill="black"/>
<path d="M43.2018 82.3115H41.9988V83.5145H43.2018V82.3115Z" fill="black"/>
<path d="M51.6215 82.3115H50.4185V83.5145H51.6215V82.3115Z" fill="black"/>
<path d="M52.8246 82.3115H51.6216V83.5145H52.8246V82.3115Z" fill="black"/>
<path d="M56.4335 82.3115H55.2305V83.5145H56.4335V82.3115Z" fill="black"/>
<path d="M57.6366 82.3115H56.4336V83.5145H57.6366V82.3115Z" fill="black"/>
<path d="M61.2457 82.3115H60.0427V83.5145H61.2457V82.3115Z" fill="black"/>
<path d="M66.0578 82.3115H64.8547V83.5145H66.0578V82.3115Z" fill="black"/>
<path d="M67.2592 82.3115H66.0562V83.5145H67.2592V82.3115Z" fill="black"/>
<path d="M73.2743 82.3115H72.0713V83.5145H73.2743V82.3115Z" fill="black"/>
<path d="M74.4774 82.3115H73.2744V83.5145H74.4774V82.3115Z" fill="black"/>
<path d="M75.6806 82.3115H74.4775V83.5145H75.6806V82.3115Z" fill="black"/>
<path d="M76.8834 82.3115H75.6804V83.5145H76.8834V82.3115Z" fill="black"/>
<path d="M78.0863 82.3115H76.8833V83.5145H78.0863V82.3115Z" fill="black"/>
<path d="M82.8986 82.3115H81.6956V83.5145H82.8986V82.3115Z" fill="black"/>
<path d="M91.3182 82.3115H90.1152V83.5145H91.3182V82.3115Z" fill="black"/>
<path d="M92.5209 82.3115H91.3179V83.5145H92.5209V82.3115Z" fill="black"/>
<path d="M94.9271 82.3115H93.7241V83.5145H94.9271V82.3115Z" fill="black"/>
<path d="M41.9989 83.5137H40.7959V84.7167H41.9989V83.5137Z" fill="black"/>
<path d="M43.2018 83.5137H41.9988V84.7167H43.2018V83.5137Z" fill="black"/>
<path d="M51.6215 83.5137H50.4185V84.7167H51.6215V83.5137Z" fill="black"/>
<path d="M56.4335 83.5137H55.2305V84.7167H56.4335V83.5137Z" fill="black"/>
<path d="M60.0426 83.5137H58.8396V84.7167H60.0426V83.5137Z" fill="black"/>
<path d="M61.2457 83.5137H60.0427V84.7167H61.2457V83.5137Z" fill="black"/>
<path d="M66.0578 83.5137H64.8547V84.7167H66.0578V83.5137Z" fill="black"/>
<path d="M73.2743 83.5137H72.0713V84.7167H73.2743V83.5137Z" fill="black"/>
<path d="M82.8986 83.5137H81.6956V84.7167H82.8986V83.5137Z" fill="black"/>
<path d="M92.5209 83.5137H91.3179V84.7167H92.5209V83.5137Z" fill="black"/>
<path d="M93.724 83.5137H92.521V84.7167H93.724V83.5137Z" fill="black"/>
<path d="M94.9271 83.5137H93.7241V84.7167H94.9271V83.5137Z" fill="black"/>
<path d="M40.796 84.7168H39.593V85.9198H40.796V84.7168Z" fill="black"/>
<path d="M41.9989 84.7168H40.7959V85.9198H41.9989V84.7168Z" fill="black"/>
<path d="M51.6215 84.7168H50.4185V85.9198H51.6215V84.7168Z" fill="black"/>
<path d="M56.4335 84.7168H55.2305V85.9198H56.4335V84.7168Z" fill="black"/>
<path d="M60.0426 84.7168H58.8396V85.9198H60.0426V84.7168Z" fill="black"/>
<path d="M66.0578 84.7168H64.8547V85.9198H66.0578V84.7168Z" fill="black"/>
<path d="M73.2743 84.7168H72.0713V85.9198H73.2743V84.7168Z" fill="black"/>
<path d="M81.6955 84.7168H80.4924V85.9198H81.6955V84.7168Z" fill="black"/>
<path d="M82.8986 84.7168H81.6956V85.9198H82.8986V84.7168Z" fill="black"/>
<path d="M84.1015 84.7168H82.8984V85.9198H84.1015V84.7168Z" fill="black"/>
<path d="M85.3046 84.7168H84.1016V85.9198H85.3046V84.7168Z" fill="black"/>
<path d="M94.9271 84.7168H93.7241V85.9198H94.9271V84.7168Z" fill="black"/>
<path d="M40.796 85.9199H39.593V87.1229H40.796V85.9199Z" fill="black"/>
<path d="M56.4335 85.9199H55.2305V87.1229H56.4335V85.9199Z" fill="black"/>
<path d="M58.8397 85.9199H57.6367V87.1229H58.8397V85.9199Z" fill="black"/>
<path d="M60.0426 85.9199H58.8396V87.1229H60.0426V85.9199Z" fill="black"/>
<path d="M64.8549 85.9199H63.6519V87.1229H64.8549V85.9199Z" fill="black"/>
<path d="M66.0578 85.9199H64.8547V87.1229H66.0578V85.9199Z" fill="black"/>
<path d="M81.6955 85.9199H80.4924V87.1229H81.6955V85.9199Z" fill="black"/>
<path d="M85.3046 85.9199H84.1016V87.1229H85.3046V85.9199Z" fill="black"/>
<path d="M39.5929 87.123H38.3899V88.3261H39.5929V87.123Z" fill="black"/>
<path d="M40.796 87.123H39.593V88.3261H40.796V87.123Z" fill="black"/>
<path d="M56.4335 87.123H55.2305V88.3261H56.4335V87.123Z" fill="black"/>
<path d="M57.6366 87.123H56.4336V88.3261H57.6366V87.123Z" fill="black"/>
<path d="M58.8397 87.123H57.6367V88.3261H58.8397V87.123Z" fill="black"/>
<path d="M63.6518 87.123H62.4487V88.3261H63.6518V87.123Z" fill="black"/>
<path d="M64.8549 87.123H63.6519V88.3261H64.8549V87.123Z" fill="black"/>
<path d="M80.4926 87.123H79.2896V88.3261H80.4926V87.123Z" fill="black"/>
<path d="M81.6955 87.123H80.4924V88.3261H81.6955V87.123Z" fill="black"/>
<path d="M85.3046 87.123H84.1016V88.3261H85.3046V87.123Z" fill="black"/>
<path d="M86.506 87.123H85.303V88.3261H86.506V87.123Z" fill="black"/>
<path d="M39.5929 88.3242H38.3899V89.5272H39.5929V88.3242Z" fill="black"/>
<path d="M58.8397 88.3242H57.6367V89.5272H58.8397V88.3242Z" fill="black"/>
<path d="M62.4489 88.3242H61.2458V89.5272H62.4489V88.3242Z" fill="black"/>
<path d="M63.6518 88.3242H62.4487V89.5272H63.6518V88.3242Z" fill="black"/>
<path d="M79.2894 88.3242H78.0864V89.5272H79.2894V88.3242Z" fill="black"/>
<path d="M80.4926 88.3242H79.2896V89.5272H80.4926V88.3242Z" fill="black"/>
<path d="M86.506 88.3242H85.303V89.5272H86.506V88.3242Z" fill="black"/>
<path d="M87.7091 88.3242H86.5061V89.5272H87.7091V88.3242Z" fill="black"/>
<path d="M88.912 88.3242H87.709V89.5272H88.912V88.3242Z" fill="black"/>
<path d="M39.5929 89.5273H38.3899V90.7304H39.5929V89.5273Z" fill="black"/>
<path d="M58.8397 89.5273H57.6367V90.7304H58.8397V89.5273Z" fill="black"/>
<path d="M60.0426 89.5273H58.8396V90.7304H60.0426V89.5273Z" fill="black"/>
<path d="M61.2457 89.5273H60.0427V90.7304H61.2457V89.5273Z" fill="black"/>
<path d="M62.4489 89.5273H61.2458V90.7304H62.4489V89.5273Z" fill="black"/>
<path d="M78.0863 89.5273H76.8833V90.7304H78.0863V89.5273Z" fill="black"/>
<path d="M79.2894 89.5273H78.0864V90.7304H79.2894V89.5273Z" fill="black"/>
<path d="M88.912 89.5273H87.709V90.7304H88.912V89.5273Z" fill="black"/>
<path d="M90.1151 89.5273H88.9121V90.7304H90.1151V89.5273Z" fill="black"/>
<path d="M91.3182 89.5273H90.1152V90.7304H91.3182V89.5273Z" fill="black"/>
<path d="M38.3898 90.7305H37.1868V91.9335H38.3898V90.7305Z" fill="black"/>
<path d="M39.5929 90.7305H38.3899V91.9335H39.5929V90.7305Z" fill="black"/>
<path d="M75.6806 90.7305H74.4775V91.9335H75.6806V90.7305Z" fill="black"/>
<path d="M76.8834 90.7305H75.6804V91.9335H76.8834V90.7305Z" fill="black"/>
<path d="M78.0863 90.7305H76.8833V91.9335H78.0863V90.7305Z" fill="black"/>
<path d="M91.3182 90.7305H90.1152V91.9335H91.3182V90.7305Z" fill="black"/>
<path d="M92.5209 90.7305H91.3179V91.9335H92.5209V90.7305Z" fill="black"/>
<path d="M38.3898 91.9336H37.1868V93.1366H38.3898V91.9336Z" fill="black"/>
<path d="M74.4774 91.9336H73.2744V93.1366H74.4774V91.9336Z" fill="black"/>
<path d="M75.6806 91.9336H74.4775V93.1366H75.6806V91.9336Z" fill="black"/>
<path d="M92.5209 91.9336H91.3179V93.1366H92.5209V91.9336Z" fill="black"/>
<path d="M93.724 91.9336H92.521V93.1366H93.724V91.9336Z" fill="black"/>
<path d="M38.3898 93.1367H37.1868V94.3397H38.3898V93.1367Z" fill="black"/>
<path d="M55.2306 93.1367H54.0276V94.3397H55.2306V93.1367Z" fill="black"/>
<path d="M56.4335 93.1367H55.2305V94.3397H56.4335V93.1367Z" fill="black"/>
<path d="M57.6366 93.1367H56.4336V94.3397H57.6366V93.1367Z" fill="black"/>
<path d="M58.8397 93.1367H57.6367V94.3397H58.8397V93.1367Z" fill="black"/>
<path d="M60.0426 93.1367H58.8396V94.3397H60.0426V93.1367Z" fill="black"/>
<path d="M73.2743 93.1367H72.0713V94.3397H73.2743V93.1367Z" fill="black"/>
<path d="M74.4774 93.1367H73.2744V94.3397H74.4774V93.1367Z" fill="black"/>
<path d="M93.724 93.1367H92.521V94.3397H93.724V93.1367Z" fill="black"/>
<path d="M94.9271 93.1367H93.7241V94.3397H94.9271V93.1367Z" fill="black"/>
<path d="M38.3898 94.3398H37.1868V95.5429H38.3898V94.3398Z" fill="black"/>
<path d="M52.8246 94.3398H51.6216V95.5429H52.8246V94.3398Z" fill="black"/>
<path d="M54.0277 94.3398H52.8247V95.5429H54.0277V94.3398Z" fill="black"/>
<path d="M55.2306 94.3398H54.0276V95.5429H55.2306V94.3398Z" fill="black"/>
<path d="M72.0714 94.3398H70.8684V95.5429H72.0714V94.3398Z" fill="black"/>
<path d="M73.2743 94.3398H72.0713V95.5429H73.2743V94.3398Z" fill="black"/>
<path d="M94.9271 94.3398H93.7241V95.5429H94.9271V94.3398Z" fill="black"/>
<path d="M38.3898 95.542H37.1868V96.745H38.3898V95.542Z" fill="black"/>
<path d="M52.8246 95.542H51.6216V96.745H52.8246V95.542Z" fill="black"/>
<path d="M72.0714 95.542H70.8684V96.745H72.0714V95.542Z" fill="black"/>
<path d="M38.3898 96.7451H37.1868V97.9481H38.3898V96.7451Z" fill="black"/>
<path d="M50.4186 96.7451H49.2156V97.9481H50.4186V96.7451Z" fill="black"/>
<path d="M51.6215 96.7451H50.4185V97.9481H51.6215V96.7451Z" fill="black"/>
<path d="M52.8246 96.7451H51.6216V97.9481H52.8246V96.7451Z" fill="black"/>
<path d="M70.8683 96.7451H69.6653V97.9481H70.8683V96.7451Z" fill="black"/>
<path d="M72.0714 96.7451H70.8684V97.9481H72.0714V96.7451Z" fill="black"/>
<path d="M38.3898 97.9492H37.1868V99.1522H38.3898V97.9492Z" fill="black"/>
<path d="M49.2155 97.9492H48.0125V99.1522H49.2155V97.9492Z" fill="black"/>
<path d="M50.4186 97.9492H49.2156V99.1522H50.4186V97.9492Z" fill="black"/>
<path d="M69.6654 97.9492H68.4624V99.1522H69.6654V97.9492Z" fill="black"/>
<path d="M70.8683 97.9492H69.6653V99.1522H70.8683V97.9492Z" fill="black"/>
<path d="M38.3898 99.1523H37.1868V100.355H38.3898V99.1523Z" fill="black"/>
<path d="M49.2155 99.1523H48.0125V100.355H49.2155V99.1523Z" fill="black"/>
<path d="M67.2592 99.1523H66.0562V100.355H67.2592V99.1523Z" fill="black"/>
<path d="M68.4623 99.1523H67.2593V100.355H68.4623V99.1523Z" fill="black"/>
<path d="M69.6654 99.1523H68.4624V100.355H69.6654V99.1523Z" fill="black"/>
<path d="M38.3898 100.354H37.1868V101.558H38.3898V100.354Z" fill="black"/>
<path d="M48.0141 100.354H46.811V101.558H48.0141V100.354Z" fill="black"/>
<path d="M49.2155 100.354H48.0125V101.558H49.2155V100.354Z" fill="black"/>
<path d="M66.0578 100.354H64.8547V101.558H66.0578V100.354Z" fill="black"/>
<path d="M67.2592 100.354H66.0562V101.558H67.2592V100.354Z" fill="black"/>
<path d="M37.1869 101.558H35.9839V102.761H37.1869V101.558Z" fill="black"/>
<path d="M38.3898 101.558H37.1868V102.761H38.3898V101.558Z" fill="black"/>
<path d="M46.8112 101.558H45.6082V102.761H46.8112V101.558Z" fill="black"/>
<path d="M48.0141 101.558H46.811V102.761H48.0141V101.558Z" fill="black"/>
<path d="M64.8549 101.558H63.6519V102.761H64.8549V101.558Z" fill="black"/>
<path d="M66.0578 101.558H64.8547V102.761H66.0578V101.558Z" fill="black"/>
<path d="M37.1869 102.76H35.9839V103.963H37.1869V102.76Z" fill="black"/>
<path d="M46.8112 102.76H45.6082V103.963H46.8112V102.76Z" fill="black"/>
<path d="M64.8549 102.76H63.6519V103.963H64.8549V102.76Z" fill="black"/>
<path d="M37.1869 103.964H35.9839V105.167H37.1869V103.964Z" fill="black"/>
<path d="M46.8112 103.964H45.6082V105.167H46.8112V103.964Z" fill="black"/>
<path d="M63.6518 103.964H62.4487V105.167H63.6518V103.964Z" fill="black"/>
<path d="M64.8549 103.964H63.6519V105.167H64.8549V103.964Z" fill="black"/>
<path d="M37.1869 105.167H35.9839V106.37H37.1869V105.167Z" fill="black"/>
<path d="M46.8112 105.167H45.6082V106.37H46.8112V105.167Z" fill="black"/>
<path d="M62.4489 105.167H61.2458V106.37H62.4489V105.167Z" fill="black"/>
<path d="M63.6518 105.167H62.4487V106.37H63.6518V105.167Z" fill="black"/>
<path d="M35.9838 106.368H34.7808V107.571H35.9838V106.368Z" fill="black"/>
<path d="M37.1869 106.368H35.9839V107.571H37.1869V106.368Z" fill="black"/>
<path d="M60.0426 106.368H58.8396V107.571H60.0426V106.368Z" fill="black"/>
<path d="M61.2457 106.368H60.0427V107.571H61.2457V106.368Z" fill="black"/>
<path d="M62.4489 106.368H61.2458V107.571H62.4489V106.368Z" fill="black"/>
<path d="M35.9838 107.571H34.7808V108.774H35.9838V107.571Z" fill="black"/>
<path d="M57.6366 107.571H56.4336V108.774H57.6366V107.571Z" fill="black"/>
<path d="M58.8397 107.571H57.6367V108.774H58.8397V107.571Z" fill="black"/>
<path d="M60.0426 107.571H58.8396V108.774H60.0426V107.571Z" fill="black"/>
<path d="M35.9838 108.774H34.7808V109.977H35.9838V108.774Z" fill="black"/>
<path d="M56.4335 108.774H55.2305V109.977H56.4335V108.774Z" fill="black"/>
<path d="M57.6366 108.774H56.4336V109.977H57.6366V108.774Z" fill="black"/>
<path d="M116.581 57.0225H115.378V58.2255H116.581V57.0225Z" fill="black"/>
<path d="M117.785 57.0225H116.582V58.2255H117.785V57.0225Z" fill="black"/>
<path d="M118.987 57.0225H117.784V58.2255H118.987V57.0225Z" fill="black"/>
<path d="M115.378 58.2256H114.175V59.4286H115.378V58.2256Z" fill="black"/>
<path d="M116.581 58.2256H115.378V59.4286H116.581V58.2256Z" fill="black"/>
<path d="M118.987 58.2256H117.784V59.4286H118.987V58.2256Z" fill="black"/>
<path d="M99.7406 59.4287H98.5376V60.6317H99.7406V59.4287Z" fill="black"/>
<path d="M100.944 59.4287H99.7407V60.6317H100.944V59.4287Z" fill="black"/>
<path d="M102.147 59.4287H100.944V60.6317H102.147V59.4287Z" fill="black"/>
<path d="M103.348 59.4287H102.145V60.6317H103.348V59.4287Z" fill="black"/>
<path d="M114.175 59.4287H112.972V60.6317H114.175V59.4287Z" fill="black"/>
<path d="M115.378 59.4287H114.175V60.6317H115.378V59.4287Z" fill="black"/>
<path d="M118.987 59.4287H117.784V60.6317H118.987V59.4287Z" fill="black"/>
<path d="M98.5377 60.6318H97.3347V61.8349H98.5377V60.6318Z" fill="black"/>
<path d="M99.7406 60.6318H98.5376V61.8349H99.7406V60.6318Z" fill="black"/>
<path d="M103.348 60.6318H102.145V61.8349H103.348V60.6318Z" fill="black"/>
<path d="M104.551 60.6318H103.348V61.8349H104.551V60.6318Z" fill="black"/>
<path d="M105.754 60.6318H104.551V61.8349H105.754V60.6318Z" fill="black"/>
<path d="M106.957 60.6318H105.754V61.8349H106.957V60.6318Z" fill="black"/>
<path d="M108.16 60.6318H106.957V61.8349H108.16V60.6318Z" fill="black"/>
<path d="M114.175 60.6318H112.972V61.8349H114.175V60.6318Z" fill="black"/>
<path d="M118.987 60.6318H117.784V61.8349H118.987V60.6318Z" fill="black"/>
<path d="M120.191 60.6318H118.988V61.8349H120.191V60.6318Z" fill="black"/>
<path d="M98.5377 61.833H97.3347V63.036H98.5377V61.833Z" fill="black"/>
<path d="M104.551 61.833H103.348V63.036H104.551V61.833Z" fill="black"/>
<path d="M108.16 61.833H106.957V63.036H108.16V61.833Z" fill="black"/>
<path d="M109.363 61.833H108.16V63.036H109.363V61.833Z" fill="black"/>
<path d="M114.175 61.833H112.972V63.036H114.175V61.833Z" fill="black"/>
<path d="M120.191 61.833H118.988V63.036H120.191V61.833Z" fill="black"/>
<path d="M98.5377 63.0361H97.3347V64.2392H98.5377V63.0361Z" fill="black"/>
<path d="M99.7406 63.0361H98.5376V64.2392H99.7406V63.0361Z" fill="black"/>
<path d="M104.551 63.0361H103.348V64.2392H104.551V63.0361Z" fill="black"/>
<path d="M105.754 63.0361H104.551V64.2392H105.754V63.0361Z" fill="black"/>
<path d="M109.363 63.0361H108.16V64.2392H109.363V63.0361Z" fill="black"/>
<path d="M110.566 63.0361H109.363V64.2392H110.566V63.0361Z" fill="black"/>
<path d="M114.175 63.0361H112.972V64.2392H114.175V63.0361Z" fill="black"/>
<path d="M120.191 63.0361H118.988V64.2392H120.191V63.0361Z" fill="black"/>
<path d="M121.392 63.0361H120.189V64.2392H121.392V63.0361Z" fill="black"/>
<path d="M98.5377 64.2402H97.3347V65.4433H98.5377V64.2402Z" fill="black"/>
<path d="M99.7406 64.2402H98.5376V65.4433H99.7406V64.2402Z" fill="black"/>
<path d="M100.944 64.2402H99.7407V65.4433H100.944V64.2402Z" fill="black"/>
<path d="M105.754 64.2402H104.551V65.4433H105.754V64.2402Z" fill="black"/>
<path d="M106.957 64.2402H105.754V65.4433H106.957V64.2402Z" fill="black"/>
<path d="M110.566 64.2402H109.363V65.4433H110.566V64.2402Z" fill="black"/>
<path d="M111.769 64.2402H110.566V65.4433H111.769V64.2402Z" fill="black"/>
<path d="M114.175 64.2402H112.972V65.4433H114.175V64.2402Z" fill="black"/>
<path d="M115.378 64.2402H114.175V65.4433H115.378V64.2402Z" fill="black"/>
<path d="M116.581 64.2402H115.378V65.4433H116.581V64.2402Z" fill="black"/>
<path d="M121.392 64.2402H120.189V65.4433H121.392V64.2402Z" fill="black"/>
<path d="M122.595 64.2402H121.392V65.4433H122.595V64.2402Z" fill="black"/>
<path d="M97.3346 65.4424H96.1316V66.6454H97.3346V65.4424Z" fill="black"/>
<path d="M98.5377 65.4424H97.3347V66.6454H98.5377V65.4424Z" fill="black"/>
<path d="M100.944 65.4424H99.7407V66.6454H100.944V65.4424Z" fill="black"/>
<path d="M108.16 65.4424H106.957V66.6454H108.16V65.4424Z" fill="black"/>
<path d="M111.769 65.4424H110.566V66.6454H111.769V65.4424Z" fill="black"/>
<path d="M116.581 65.4424H115.378V66.6454H116.581V65.4424Z" fill="black"/>
<path d="M122.595 65.4424H121.392V66.6454H122.595V65.4424Z" fill="black"/>
<path d="M97.3346 66.6455H96.1316V67.8485H97.3346V66.6455Z" fill="black"/>
<path d="M100.944 66.6455H99.7407V67.8485H100.944V66.6455Z" fill="black"/>
<path d="M108.16 66.6455H106.957V67.8485H108.16V66.6455Z" fill="black"/>
<path d="M109.363 66.6455H108.16V67.8485H109.363V66.6455Z" fill="black"/>
<path d="M111.769 66.6455H110.566V67.8485H111.769V66.6455Z" fill="black"/>
<path d="M112.973 66.6455H111.77V67.8485H112.973V66.6455Z" fill="black"/>
<path d="M116.581 66.6455H115.378V67.8485H116.581V66.6455Z" fill="black"/>
<path d="M117.785 66.6455H116.582V67.8485H117.785V66.6455Z" fill="black"/>
<path d="M122.595 66.6455H121.392V67.8485H122.595V66.6455Z" fill="black"/>
<path d="M97.3346 67.8477H96.1316V69.0507H97.3346V67.8477Z" fill="black"/>
<path d="M100.944 67.8477H99.7407V69.0507H100.944V67.8477Z" fill="black"/>
<path d="M109.363 67.8477H108.16V69.0507H109.363V67.8477Z" fill="black"/>
<path d="M110.566 67.8477H109.363V69.0507H110.566V67.8477Z" fill="black"/>
<path d="M112.973 67.8477H111.77V69.0507H112.973V67.8477Z" fill="black"/>
<path d="M117.785 67.8477H116.582V69.0507H117.785V67.8477Z" fill="black"/>
<path d="M122.595 67.8477H121.392V69.0507H122.595V67.8477Z" fill="black"/>
<path d="M123.798 67.8477H122.595V69.0507H123.798V67.8477Z" fill="black"/>
<path d="M97.3346 69.0508H96.1316V70.2538H97.3346V69.0508Z" fill="black"/>
<path d="M100.944 69.0508H99.7407V70.2538H100.944V69.0508Z" fill="black"/>
<path d="M102.147 69.0508H100.944V70.2538H102.147V69.0508Z" fill="black"/>
<path d="M111.769 69.0508H110.566V70.2538H111.769V69.0508Z" fill="black"/>
<path d="M112.973 69.0508H111.77V70.2538H112.973V69.0508Z" fill="black"/>
<path d="M117.785 69.0508H116.582V70.2538H117.785V69.0508Z" fill="black"/>
<path d="M123.798 69.0508H122.595V70.2538H123.798V69.0508Z" fill="black"/>
<path d="M97.3346 70.2549H96.1316V71.4579H97.3346V70.2549Z" fill="black"/>
<path d="M102.147 70.2549H100.944V71.4579H102.147V70.2549Z" fill="black"/>
<path d="M112.973 70.2549H111.77V71.4579H112.973V70.2549Z" fill="black"/>
<path d="M114.175 70.2549H112.972V71.4579H114.175V70.2549Z" fill="black"/>
<path d="M117.785 70.2549H116.582V71.4579H117.785V70.2549Z" fill="black"/>
<path d="M123.798 70.2549H122.595V71.4579H123.798V70.2549Z" fill="black"/>
<path d="M97.3346 71.458H96.1316V72.661H97.3346V71.458Z" fill="black"/>
<path d="M102.147 71.458H100.944V72.661H102.147V71.458Z" fill="black"/>
<path d="M115.378 71.458H114.175V72.661H115.378V71.458Z" fill="black"/>
<path d="M116.581 71.458H115.378V72.661H116.581V71.458Z" fill="black"/>
<path d="M117.785 71.458H116.582V72.661H117.785V71.458Z" fill="black"/>
<path d="M118.987 71.458H117.784V72.661H118.987V71.458Z" fill="black"/>
<path d="M123.798 71.458H122.595V72.661H123.798V71.458Z" fill="black"/>
<path d="M96.1317 72.6602H94.9287V73.8632H96.1317V72.6602Z" fill="black"/>
<path d="M97.3346 72.6602H96.1316V73.8632H97.3346V72.6602Z" fill="black"/>
<path d="M98.5377 72.6602H97.3347V73.8632H98.5377V72.6602Z" fill="black"/>
<path d="M102.147 72.6602H100.944V73.8632H102.147V72.6602Z" fill="black"/>
<path d="M118.987 72.6602H117.784V73.8632H118.987V72.6602Z" fill="black"/>
<path d="M120.191 72.6602H118.988V73.8632H120.191V72.6602Z" fill="black"/>
<path d="M125.001 72.6602H123.798V73.8632H125.001V72.6602Z" fill="black"/>
<path d="M126.204 72.6602H125.001V73.8632H126.204V72.6602Z" fill="black"/>
<path d="M98.5377 73.8633H97.3347V75.0663H98.5377V73.8633Z" fill="black"/>
<path d="M120.191 73.8633H118.988V75.0663H120.191V73.8633Z" fill="black"/>
<path d="M121.392 73.8633H120.189V75.0663H121.392V73.8633Z" fill="black"/>
<path d="M126.204 73.8633H125.001V75.0663H126.204V73.8633Z" fill="black"/>
<path d="M98.5377 75.0664H97.3347V76.2694H98.5377V75.0664Z" fill="black"/>
<path d="M121.392 75.0664H120.189V76.2694H121.392V75.0664Z" fill="black"/>
<path d="M122.595 75.0664H121.392V76.2694H122.595V75.0664Z" fill="black"/>
<path d="M126.204 75.0664H125.001V76.2694H126.204V75.0664Z" fill="black"/>
<path d="M98.5377 76.2695H97.3347V77.4725H98.5377V76.2695Z" fill="black"/>
<path d="M126.204 76.2695H125.001V77.4725H126.204V76.2695Z" fill="black"/>
<path d="M98.5377 77.4727H97.3347V78.6757H98.5377V77.4727Z" fill="black"/>
<path d="M126.204 77.4727H125.001V78.6757H126.204V77.4727Z" fill="black"/>
<path d="M127.407 77.4727H126.204V78.6757H127.407V77.4727Z" fill="black"/>
<path d="M98.5377 78.6758H97.3347V79.8788H98.5377V78.6758Z" fill="black"/>
<path d="M127.407 78.6758H126.204V79.8788H127.407V78.6758Z" fill="black"/>
<path d="M127.407 79.877H126.204V81.08H127.407V79.877Z" fill="black"/>
<path d="M127.407 81.0801H126.204V82.2831H127.407V81.0801Z" fill="black"/>
<path d="M127.407 82.2832H126.204V83.4862H127.407V82.2832Z" fill="black"/>
<path d="M128.61 82.2832H127.407V83.4862H128.61V82.2832Z" fill="black"/>
<path d="M128.61 83.4863H127.407V84.6894H128.61V83.4863Z" fill="black"/>
<path d="M128.61 84.6885H127.407V85.8915H128.61V84.6885Z" fill="black"/>
<path d="M128.61 85.8926H127.407V87.0956H128.61V85.8926Z" fill="black"/>
<path d="M128.61 87.0947H127.407V88.2977H128.61V87.0947Z" fill="black"/>
<path d="M128.61 88.2979H127.407V89.5009H128.61V88.2979Z" fill="black"/>
<path d="M129.813 88.2979H128.61V89.5009H129.813V88.2979Z" fill="black"/>
<path d="M129.813 89.501H128.61V90.704H129.813V89.501Z" fill="black"/>
<path d="M129.813 90.7041H128.61V91.9071H129.813V90.7041Z" fill="black"/>
<path d="M128.61 91.9072H127.407V93.1102H128.61V91.9072Z" fill="black"/>
<path d="M129.813 91.9072H128.61V93.1102H129.813V91.9072Z" fill="black"/>
<path d="M128.61 93.1104H127.407V94.3134H128.61V93.1104Z" fill="black"/>
<path d="M96.1317 94.3125H94.9287V95.5155H96.1317V94.3125Z" fill="black"/>
<path d="M128.61 94.3125H127.407V95.5155H128.61V94.3125Z" fill="black"/>
<path d="M96.1317 95.5156H94.9287V96.7186H96.1317V95.5156Z" fill="black"/>
<path d="M97.3346 95.5156H96.1316V96.7186H97.3346V95.5156Z" fill="black"/>
<path d="M128.61 95.5156H127.407V96.7186H128.61V95.5156Z" fill="black"/>
<path d="M97.3346 96.7197H96.1316V97.9227H97.3346V96.7197Z" fill="black"/>
<path d="M98.5377 96.7197H97.3347V97.9227H98.5377V96.7197Z" fill="black"/>
<path d="M99.7406 96.7197H98.5376V97.9227H99.7406V96.7197Z" fill="black"/>
<path d="M128.61 96.7197H127.407V97.9227H128.61V96.7197Z" fill="black"/>
<path d="M99.7406 97.9229H98.5376V99.1259H99.7406V97.9229Z" fill="black"/>
<path d="M100.944 97.9229H99.7407V99.1259H100.944V97.9229Z" fill="black"/>
<path d="M128.61 97.9229H127.407V99.1259H128.61V97.9229Z" fill="black"/>
<path d="M100.944 99.123H99.7407V100.326H100.944V99.123Z" fill="black"/>
<path d="M102.147 99.123H100.944V100.326H102.147V99.123Z" fill="black"/>
<path d="M103.348 99.123H102.145V100.326H103.348V99.123Z" fill="black"/>
<path d="M128.61 99.123H127.407V100.326H128.61V99.123Z" fill="black"/>
<path d="M103.348 100.326H102.145V101.529H103.348V100.326Z" fill="black"/>
<path d="M104.551 100.326H103.348V101.529H104.551V100.326Z" fill="black"/>
<path d="M128.61 100.326H127.407V101.529H128.61V100.326Z" fill="black"/>
<path d="M104.551 101.53H103.348V102.733H104.551V101.53Z" fill="black"/>
<path d="M105.754 101.53H104.551V102.733H105.754V101.53Z" fill="black"/>
<path d="M128.61 101.53H127.407V102.733H128.61V101.53Z" fill="black"/>
<path d="M129.813 101.53H128.61V102.733H129.813V101.53Z" fill="black"/>
<path d="M105.754 102.733H104.551V103.936H105.754V102.733Z" fill="black"/>
<path d="M106.957 102.733H105.754V103.936H106.957V102.733Z" fill="black"/>
<path d="M129.813 102.733H128.61V103.936H129.813V102.733Z" fill="black"/>
<path d="M106.957 103.936H105.754V105.139H106.957V103.936Z" fill="black"/>
<path d="M108.16 103.936H106.957V105.139H108.16V103.936Z" fill="black"/>
<path d="M129.813 103.936H128.61V105.139H129.813V103.936Z" fill="black"/>
<path d="M108.16 105.139H106.957V106.342H108.16V105.139Z" fill="black"/>
<path d="M109.363 105.139H108.16V106.342H109.363V105.139Z" fill="black"/>
<path d="M129.813 105.139H128.61V106.342H129.813V105.139Z" fill="black"/>
<path d="M131.016 105.139H129.813V106.342H131.016V105.139Z" fill="black"/>
<path d="M109.363 106.342H108.16V107.545H109.363V106.342Z" fill="black"/>
<path d="M110.566 106.342H109.363V107.545H110.566V106.342Z" fill="black"/>
<path d="M131.016 106.342H129.813V107.545H131.016V106.342Z" fill="black"/>
<path d="M110.566 107.545H109.363V108.748H110.566V107.545Z" fill="black"/>
<path d="M111.769 107.545H110.566V108.748H111.769V107.545Z" fill="black"/>
<path d="M131.016 107.545H129.813V108.748H131.016V107.545Z" fill="black"/>
<path d="M132.219 107.545H131.016V108.748H132.219V107.545Z" fill="black"/>
<path d="M111.769 108.748H110.566V109.951H111.769V108.748Z" fill="black"/>
<path d="M112.973 108.748H111.77V109.951H112.973V108.748Z" fill="black"/>
<path d="M132.219 108.748H131.016V109.951H132.219V108.748Z" fill="black"/>
</svg>
