<svg width="70" height="70" viewBox="0 0 70 70" fill="none" xmlns="http://www.w3.org/2000/svg">
<path d="M35 58.8002C21.84 58.8002 11.2 48.1602 11.2 35.0002C11.2 21.8402 21.84 11.2002 35 11.2002C48.16 11.2002 58.7999 21.8402 58.7999 35.0002C58.7999 48.1602 48.16 58.8002 35 58.8002ZM35 14.0002C23.38 14.0002 14 23.3802 14 35.0002C14 46.6202 23.38 56.0002 35 56.0002C46.6199 56.0002 56 46.6202 56 35.0002C56 23.3802 46.6199 14.0002 35 14.0002Z" fill="#33775A"/>
<path d="M32.2 45.3601L20.02 33.1801L21.98 31.2201L32.2 41.4401L48.02 25.6201L49.98 27.5801L32.2 45.3601Z" fill="#33775A"/>
</svg>
