<svg width="36" height="35" viewBox="0 0 36 35" fill="none" xmlns="http://www.w3.org/2000/svg">
<path d="M16.3127 0.800339L12.8157 3.86022H17.8308V0.232434C17.2896 0.230676 16.7478 0.419977 16.3127 0.800339Z" fill="#FDF0BC"/>
<path d="M19.3288 0.79681C18.8983 0.422309 18.3647 0.23418 17.8304 0.232422V3.86021H22.8456L19.3288 0.79681Z" fill="url(#paint0_linear_1280_5214)"/>
<path d="M5.63136 5.81722L4.90991 10.4202L8.75162 7.18101L6.43097 4.40186C6.01513 4.74998 5.72118 5.24521 5.63136 5.81722Z" fill="#FDF0BC"/>
<path d="M7.9402 3.86604C7.37097 3.85666 6.8414 4.05768 6.4314 4.40171L8.75205 7.18086L12.5938 3.94164L7.9402 3.86604Z" fill="url(#paint1_linear_1280_5214)"/>
<path d="M0.658322 16.5596L3.04955 20.552L3.92031 15.5891L0.365543 14.9585C0.26931 15.4942 0.360877 16.0632 0.658322 16.5596Z" fill="#FDF0BC"/>
<path d="M1.17898 13.5739C0.737482 13.9349 0.460449 14.4308 0.365967 14.9588L3.92131 15.5888L4.79207 10.626L1.17898 13.5739Z" fill="url(#paint2_linear_1280_5214)"/>
<path d="M3.71856 28.0011L8.10442 29.5144L5.59714 25.1499L2.47046 26.9638C2.73933 27.4362 3.17325 27.813 3.71856 28.0011Z" fill="url(#paint3_linear_1280_5214)"/>
<path d="M2.20817 25.3775C2.10028 25.939 2.20526 26.4981 2.47062 26.964L5.5973 25.1501L3.09001 20.7856L2.20817 25.3775Z" fill="url(#paint4_linear_1280_5214)"/>
<path d="M13.385 34.788L17.7125 33.1148L13.0001 31.3911L11.7654 34.8003C12.2734 34.9878 12.8473 34.996 13.385 34.788Z" fill="url(#paint5_linear_1280_5214)"/>
<path d="M10.5486 33.7538C10.8251 34.2537 11.2631 34.6141 11.7646 34.7993L12.9993 31.3901L8.28687 29.6665L10.5486 33.7538Z" fill="url(#paint6_linear_1280_5214)"/>
<path d="M25.1275 33.7448L27.3724 29.6675L22.6599 31.3911L23.8946 34.8003C24.4032 34.6157 24.8482 34.2517 25.1275 33.7448Z" fill="url(#paint7_linear_1280_5214)"/>
<path d="M22.2967 34.7841C22.8286 34.9886 23.3944 34.9816 23.8971 34.7993L22.6624 31.3901L17.95 33.1138L22.2967 34.7841Z" fill="url(#paint8_linear_1280_5214)"/>
<path d="M33.4578 25.3588L32.5695 20.7856L30.0623 25.1501L33.1889 26.964C33.4607 26.4934 33.5686 25.9273 33.4578 25.3588Z" fill="url(#paint9_linear_1280_5214)"/>
<path d="M31.9526 27.9859C32.4903 27.799 32.9195 27.428 33.1884 26.9638L30.0617 25.1499L27.5544 29.5144L31.9526 27.9859Z" fill="url(#paint10_linear_1280_5214)"/>
<path d="M34.476 13.5552L30.8699 10.626L31.7406 15.5888L35.296 14.9588C35.2044 14.4231 34.9245 13.9197 34.476 13.5552Z" fill="url(#paint11_linear_1280_5214)"/>
<path d="M35.0021 16.5397C35.2948 16.0492 35.3864 15.4877 35.2949 14.9585L31.7395 15.5885L32.6103 20.5514L35.0021 16.5397Z" fill="url(#paint12_linear_1280_5214)"/>
<path d="M27.7052 3.85586L23.0691 3.94084L26.9108 7.18006L29.2315 4.4009C28.818 4.05043 28.282 3.84531 27.7052 3.85586Z" fill="url(#paint13_linear_1280_5214)"/>
<path d="M30.0169 5.80247C29.927 5.2375 29.6383 4.74871 29.2301 4.40234L26.9094 7.1815L30.7511 10.4207L30.0169 5.80247Z" fill="url(#paint14_linear_1280_5214)"/>
<path d="M17.8305 30.3611C24.5948 30.3611 30.0783 24.8509 30.0783 18.0536C30.0783 11.2564 24.5948 5.74609 17.8305 5.74609C11.0663 5.74609 5.58276 11.2564 5.58276 18.0536C5.58276 24.8509 11.0663 30.3611 17.8305 30.3611Z" fill="url(#paint15_radial_1280_5214)"/>
<path d="M17.8309 4.64648C10.4624 4.64648 4.48901 10.6485 4.48901 18.0529C4.48901 25.4573 10.4624 31.4599 17.8309 31.4599C25.1994 31.4599 31.1728 25.4573 31.1728 18.0529C31.1728 10.6485 25.1994 4.64648 17.8309 4.64648ZM17.8309 30.3593C11.0672 30.3593 5.58431 24.8496 5.58431 18.0529C5.58431 11.2562 11.0672 5.74654 17.8309 5.74654C24.5946 5.74654 30.0775 11.2562 30.0775 18.0529C30.0775 24.8496 24.5946 30.3593 17.8309 30.3593Z" fill="url(#paint16_linear_1280_5214)"/>
<path d="M17.8306 2.93604C9.52196 2.93604 2.78687 9.704 2.78687 18.0532C2.78687 26.4024 9.52196 33.1704 17.8306 33.1704C26.1392 33.1704 32.8743 26.4024 32.8743 18.0532C32.8743 9.704 26.1392 2.93604 17.8306 2.93604ZM17.8306 31.4537C10.4656 31.4537 4.49514 25.4541 4.49514 18.0532C4.49514 10.6523 10.4656 4.65323 17.8306 4.65323C25.1956 4.65323 31.1661 10.6529 31.1661 18.0538C31.1661 25.4547 25.1956 31.4537 17.8306 31.4537Z" fill="url(#paint17_linear_1280_5214)"/>
<path d="M14.4516 24.2213C14.2475 24.2213 14.0579 24.1557 13.8906 24.0384C13.869 24.0238 13.8544 24.0091 13.8398 23.9945C13.8252 23.9875 13.8177 23.9728 13.8107 23.9652C13.7815 23.9429 13.7669 23.9212 13.7453 23.8996C13.7308 23.8849 13.7232 23.8702 13.7092 23.8556L13.7022 23.8486C13.6876 23.8339 13.68 23.8193 13.673 23.8046L13.6584 23.7823C13.6293 23.7384 13.6077 23.6944 13.5855 23.6505C13.5785 23.6288 13.571 23.6065 13.5634 23.5848C13.5564 23.5626 13.5488 23.5338 13.5418 23.5116C13.5342 23.4823 13.5272 23.4459 13.5196 23.409C13.5196 23.3944 13.5126 23.3727 13.5126 23.358C13.5126 23.3287 13.5056 23.2994 13.5056 23.2701C13.5056 23.2191 13.5126 23.1675 13.5202 23.1089L14.0813 19.8293L11.7134 17.5084C11.6696 17.4645 11.6259 17.4135 11.5897 17.3619C11.546 17.2963 11.5168 17.2447 11.4953 17.1861C11.4883 17.1644 11.4737 17.1351 11.4661 17.0982C11.4439 17.0103 11.4299 16.9224 11.4299 16.8274C11.4299 16.7981 11.4299 16.7764 11.4299 16.7471C11.4299 16.7032 11.4369 16.6592 11.4515 16.6153C11.4515 16.6082 11.4585 16.5936 11.4585 16.5859C11.4661 16.5637 11.4661 16.542 11.4731 16.5203C11.4731 16.5133 11.4801 16.498 11.4877 16.4764C11.4947 16.4541 11.5023 16.4324 11.5168 16.4107C11.5384 16.3668 11.5606 16.3228 11.5967 16.2718C11.6113 16.2425 11.6329 16.2208 11.6551 16.1986C11.6551 16.1986 11.6551 16.1915 11.6621 16.1915L11.7787 16.001H11.8808C11.8953 15.9934 11.9023 15.9864 11.9169 15.9788C11.9315 15.9717 11.9607 15.9571 11.9822 15.9424C12.0114 15.9278 12.0476 15.9131 12.0913 15.8985C12.1059 15.8915 12.1275 15.8838 12.1496 15.8838C12.1788 15.8768 12.208 15.8692 12.2441 15.8616L15.5224 15.3857L16.9647 12.4207C17.1251 12.0914 17.4529 11.8862 17.8168 11.8862C18.0793 11.8862 18.3342 11.9958 18.5161 12.1863C18.5453 12.2226 18.5745 12.2519 18.596 12.2889C18.6252 12.3328 18.6544 12.3768 18.6759 12.4207L20.1404 15.3927L23.4111 15.8686C23.7757 15.9196 24.0743 16.1763 24.1833 16.5273C24.1909 16.5496 24.1979 16.5637 24.1979 16.5859C24.1979 16.593 24.1979 16.593 24.2049 16.6006C24.2119 16.6229 24.2195 16.6446 24.2195 16.6739C24.2195 16.6809 24.2195 16.6809 24.2195 16.6885C24.2265 16.7178 24.2265 16.7395 24.2265 16.7688C24.2341 16.9077 24.2119 17.0542 24.1536 17.1861C24.1314 17.2447 24.1029 17.2957 24.0661 17.3473L24.0585 17.3543C24.0224 17.4053 23.9786 17.4569 23.9349 17.5008L21.567 19.8217L22.1281 23.0937C22.1864 23.4524 22.0481 23.8111 21.749 24.0308C21.6761 24.0818 21.5886 24.1334 21.5011 24.1627C21.4935 24.1627 21.4865 24.1703 21.4719 24.1703C21.3774 24.1996 21.2824 24.2143 21.1879 24.2143C21.0351 24.2143 20.8817 24.1779 20.7435 24.1047L17.8151 22.5598L14.8867 24.1047C14.7572 24.185 14.6044 24.2213 14.4516 24.2213Z" fill="#DF771E"/>
<path d="M17.8164 12.3545V18.4086L15.8054 15.8246L17.379 12.6258C17.474 12.45 17.649 12.3545 17.8164 12.3545Z" fill="#FFFAF6"/>
<path d="M23.7396 16.6814L17.824 18.4092L19.8344 15.8252L23.346 16.3374C23.5431 16.3738 23.6813 16.5127 23.7396 16.6814Z" fill="#FEE0AC"/>
<path d="M21.4749 23.6576L17.8181 18.4087L21.0673 19.6605L21.6645 23.1746C21.7077 23.3798 21.6202 23.555 21.4749 23.6576Z" fill="#ECB76B"/>
<path d="M17.8154 18.4087V22.0324L14.6753 23.6939C14.4933 23.7888 14.3038 23.7595 14.158 23.6576L17.8154 18.4087Z" fill="#F1A341"/>
<path d="M19.8257 15.8246L17.8147 18.4086V12.3545C17.9459 12.3545 18.0771 12.4055 18.1716 12.508C18.1862 12.5227 18.2008 12.5444 18.2154 12.5667C18.23 12.5889 18.2445 12.6106 18.2515 12.6323L19.8257 15.8246Z" fill="#FFE9BA"/>
<path d="M23.7245 17.0108C23.7099 17.0401 23.6953 17.0694 23.6807 17.0987C23.6586 17.128 23.637 17.1497 23.6154 17.179L21.0731 19.6681L17.824 18.4162L23.7396 16.6885C23.7396 16.6955 23.7466 16.7031 23.7466 16.7107C23.7466 16.7184 23.7542 16.7254 23.7542 16.7401C23.7542 16.7477 23.7542 16.7477 23.7542 16.7477C23.7542 16.7547 23.7542 16.7623 23.7542 16.7694C23.7542 16.784 23.7542 16.7916 23.7542 16.8057C23.7612 16.8713 23.7536 16.9446 23.7245 17.0108Z" fill="#E49632"/>
<path d="M21.4721 23.6576C21.4359 23.6869 21.3922 23.7085 21.3409 23.7232C21.3339 23.7232 21.3339 23.7232 21.3263 23.7302C21.2097 23.7666 21.0784 23.7595 20.9548 23.6939L17.8147 22.0324V18.4087L21.4721 23.6576Z" fill="#E29136"/>
<path d="M17.8167 18.4087L14.1599 23.6576C14.1529 23.6499 14.1453 23.6429 14.1383 23.6353C14.1313 23.6283 14.1238 23.6206 14.1162 23.613C14.1092 23.606 14.1016 23.5984 14.087 23.5837C14.0794 23.5767 14.0724 23.5691 14.0648 23.5614C14.0573 23.5538 14.0578 23.5544 14.0578 23.5468C14.0508 23.5398 14.0433 23.5321 14.0433 23.5245C14.0287 23.5028 14.0141 23.4806 14.0071 23.4589C14.0001 23.4518 14.0001 23.4366 13.9925 23.4225C13.9855 23.4079 13.9855 23.4003 13.9779 23.3862C13.9709 23.3716 13.9709 23.3499 13.9709 23.3352C13.9709 23.3282 13.9709 23.3129 13.9709 23.3059C13.9709 23.2913 13.9709 23.2766 13.9709 23.262C13.9709 23.2327 13.9709 23.2034 13.9779 23.174L14.5752 19.66L17.8167 18.4087Z" fill="#FED891"/>
<path d="M17.8158 18.4085L11.9001 16.6808C11.9001 16.6737 11.9071 16.6661 11.9071 16.6585C11.9141 16.6438 11.9141 16.6292 11.9217 16.6222C11.9363 16.5929 11.9509 16.5712 11.9655 16.5489C11.9725 16.5342 11.98 16.5266 11.9946 16.5126C12.0022 16.5055 12.0092 16.4903 12.0238 16.4833C12.0308 16.4762 12.046 16.4616 12.053 16.454C12.06 16.4463 12.0745 16.4393 12.0821 16.4317C12.0967 16.4246 12.1113 16.4094 12.1259 16.4024C12.1329 16.3953 12.1474 16.3877 12.162 16.3877C12.1842 16.3807 12.1982 16.3731 12.2203 16.3655C12.2273 16.3655 12.2349 16.3584 12.2495 16.3584C12.2641 16.3514 12.2857 16.3514 12.3078 16.3438L15.8194 15.8315L17.8158 18.4085Z" fill="#FFF3D9"/>
<path d="M17.8171 18.4086L14.5755 19.6675L12.0333 17.1784C12.0041 17.1562 11.9895 17.1274 11.9679 17.0981C11.9534 17.0688 11.9318 17.0395 11.9242 17.0102C11.9172 16.9956 11.9096 16.9809 11.9096 16.9663C11.895 16.9223 11.8875 16.8713 11.8875 16.8274C11.8875 16.8127 11.8875 16.7981 11.8875 16.7834C11.8875 16.7617 11.8875 16.7471 11.895 16.7248C11.895 16.7178 11.902 16.7102 11.902 16.6955C11.902 16.6885 11.909 16.6809 11.909 16.6738L17.8171 18.4086Z" fill="#ECB76B"/>
<defs>
<linearGradient id="paint0_linear_1280_5214" x1="18.0757" y1="2.04632" x2="22.681" y2="2.04632" gradientUnits="userSpaceOnUse">
<stop stop-color="#FEE998"/>
<stop offset="1" stop-color="#FCC15B"/>
</linearGradient>
<linearGradient id="paint1_linear_1280_5214" x1="7.83367" y1="5.58602" x2="12.4484" y2="1.73235" gradientUnits="userSpaceOnUse">
<stop stop-color="#FEE998"/>
<stop offset="1" stop-color="#FCC15B"/>
</linearGradient>
<linearGradient id="paint2_linear_1280_5214" x1="4.87433" y1="10.6156" x2="2.26222" y2="14.8861" gradientUnits="userSpaceOnUse">
<stop stop-color="#FCC15B"/>
<stop offset="1" stop-color="#FEE998"/>
</linearGradient>
<linearGradient id="paint3_linear_1280_5214" x1="3.65294" y1="25.9553" x2="8.17416" y2="28.9137" gradientUnits="userSpaceOnUse">
<stop stop-color="#FFC05F"/>
<stop offset="1" stop-color="#ED892B"/>
</linearGradient>
<linearGradient id="paint4_linear_1280_5214" x1="3.14142" y1="20.8806" x2="3.95188" y2="25.9679" gradientUnits="userSpaceOnUse">
<stop stop-color="#FCC15B"/>
<stop offset="1" stop-color="#FEE998"/>
</linearGradient>
<linearGradient id="paint5_linear_1280_5214" x1="12.6084" y1="33.1564" x2="17.0567" y2="34.1401" gradientUnits="userSpaceOnUse">
<stop stop-color="#FEAC3E"/>
<stop offset="1" stop-color="#F08223"/>
</linearGradient>
<linearGradient id="paint6_linear_1280_5214" x1="8.06449" y1="29.6276" x2="12.1561" y2="32.9591" gradientUnits="userSpaceOnUse">
<stop stop-color="#FFA135"/>
<stop offset="1" stop-color="#FEB431"/>
</linearGradient>
<linearGradient id="paint7_linear_1280_5214" x1="27.3901" y1="29.6383" x2="23.3078" y2="33.1351" gradientUnits="userSpaceOnUse">
<stop stop-color="#FFAA3D"/>
<stop offset="1" stop-color="#ED8B1C"/>
</linearGradient>
<linearGradient id="paint8_linear_1280_5214" x1="17.9678" y1="33.4401" x2="23.1552" y2="33.1534" gradientUnits="userSpaceOnUse">
<stop stop-color="#FF962D"/>
<stop offset="1" stop-color="#E56005"/>
</linearGradient>
<linearGradient id="paint9_linear_1280_5214" x1="32.7602" y1="20.804" x2="31.7074" y2="25.9042" gradientUnits="userSpaceOnUse">
<stop stop-color="#FDBD41"/>
<stop offset="1" stop-color="#FEB334"/>
</linearGradient>
<linearGradient id="paint10_linear_1280_5214" x1="34.1268" y1="21.7026" x2="29.075" y2="30.4099" gradientUnits="userSpaceOnUse">
<stop stop-color="#F6942F"/>
<stop offset="1" stop-color="#EA6F11"/>
</linearGradient>
<linearGradient id="paint11_linear_1280_5214" x1="30.6181" y1="10.7727" x2="33.6574" y2="15.2545" gradientUnits="userSpaceOnUse">
<stop stop-color="#FDBD41"/>
<stop offset="1" stop-color="#FEB334"/>
</linearGradient>
<linearGradient id="paint12_linear_1280_5214" x1="32.4223" y1="20.5387" x2="33.6135" y2="15.301" gradientUnits="userSpaceOnUse">
<stop stop-color="#FD9D24"/>
<stop offset="1" stop-color="#FF9515"/>
</linearGradient>
<linearGradient id="paint13_linear_1280_5214" x1="28.013" y1="5.72216" x2="23.3386" y2="3.47842" gradientUnits="userSpaceOnUse">
<stop stop-color="#FCC15B"/>
<stop offset="1" stop-color="#FEE998"/>
</linearGradient>
<linearGradient id="paint14_linear_1280_5214" x1="28.034" y1="5.43526" x2="30.2752" y2="10.3915" gradientUnits="userSpaceOnUse">
<stop stop-color="#FF9515"/>
<stop offset="1" stop-color="#FFBE41"/>
</linearGradient>
<radialGradient id="paint15_radial_1280_5214" cx="0" cy="0" r="1" gradientUnits="userSpaceOnUse" gradientTransform="translate(17.8306 18.0534) scale(12.2478 12.3075)">
<stop offset="0.8428" stop-color="#FAAA31"/>
<stop offset="1" stop-color="#F57E16"/>
</radialGradient>
<linearGradient id="paint16_linear_1280_5214" x1="17.831" y1="4.64626" x2="17.831" y2="31.4602" gradientUnits="userSpaceOnUse">
<stop offset="0.0226" stop-color="#FD9A18"/>
<stop offset="0.3764" stop-color="#FEC752"/>
<stop offset="1" stop-color="#FFA422"/>
</linearGradient>
<linearGradient id="paint17_linear_1280_5214" x1="17.8307" y1="2.89173" x2="17.8307" y2="33.1262" gradientUnits="userSpaceOnUse">
<stop stop-color="#FFDB69"/>
<stop offset="0.1799" stop-color="#FEE7B0"/>
<stop offset="0.24" stop-color="#FEE9BA"/>
<stop offset="0.2592" stop-color="#FDECD0"/>
<stop offset="0.2953" stop-color="#FEDA92"/>
<stop offset="0.3254" stop-color="#FFCD64"/>
<stop offset="0.3405" stop-color="#FFC853"/>
<stop offset="0.7613" stop-color="#FF9114"/>
<stop offset="1" stop-color="#F57E16"/>
</linearGradient>
</defs>
</svg>
