<svg width="20" height="20" viewBox="0 0 20 20" fill="none" xmlns="http://www.w3.org/2000/svg">
<path d="M11.9601 8.84375C13.295 11.4285 13.1589 14.3099 11.6561 15.2799C10.1532 16.2499 7.85301 14.9414 6.51813 12.3563C5.18325 9.77135 5.31932 6.89021 6.82218 5.92019C8.32504 4.95017 10.6255 6.25902 11.9601 8.84375Z" stroke="#B43565" stroke-width="1.2" stroke-linecap="round" stroke-linejoin="round"/>
<path d="M9.23883 8.84375C7.90395 11.4285 8.04003 14.3099 9.54289 15.2799C11.0457 16.2499 13.3462 14.9411 14.6811 12.3563C16.016 9.77162 15.8799 6.89021 14.3768 5.92019C12.8744 4.95017 10.5737 6.25902 9.23883 8.84375Z" stroke="#B43565" stroke-width="1.2" stroke-linecap="round" stroke-linejoin="round"/>
<path d="M10.5684 6.90967C11.0868 7.42521 11.5666 8.07828 11.9615 8.84322C13.2961 11.428 13.1601 14.3094 11.6572 15.2794C11.3435 15.482 10.995 15.5852 10.6276 15.5982" stroke="#B43565" stroke-width="1.2" stroke-linecap="round" stroke-linejoin="round"/>
</svg>
