<svg width="140" height="43" viewBox="0 0 140 43" fill="none" xmlns="http://www.w3.org/2000/svg">
<path d="M35.2301 21.0127C35.437 20.6336 35.2147 19.8089 34.8223 19.6276C34.431 19.4453 34.6974 19.3838 34.4146 19.057C34.0827 18.6739 33.8409 18.6114 33.341 18.5284C32.8114 18.4403 32.5593 19.1328 32.2459 19.5692C31.5513 20.5394 30.0925 20.3929 28.9256 20.1429C29.1869 19.2598 29.4471 18.3778 29.7083 17.4947C29.7995 17.1864 29.8917 16.8667 29.8538 16.5471C29.8189 16.2541 29.6765 15.9857 29.53 15.7296C29.0311 14.8578 28.4452 14.0362 27.7844 13.2801C27.18 12.5876 26.4782 11.8818 26.3604 10.97C26.2928 10.4465 26.4249 9.88203 26.1944 9.40669C25.9998 9.0051 25.589 8.76231 25.1966 8.54922C24.4201 8.12715 23.577 7.72454 22.6949 7.79011C21.775 7.85875 20.9185 8.48776 20.5774 9.3442C20.5047 9.52757 20.4524 9.72119 20.3418 9.88408C20.0949 10.2488 19.6277 10.3738 19.2282 10.5602C18.2406 11.0233 17.5358 12.0405 17.4487 13.1285C17.419 13.4942 17.4436 13.8999 17.2131 14.1847C17.0523 14.3845 16.7931 14.4849 16.6281 14.6816C16.1702 15.2266 16.665 16.1168 16.3423 16.751C16.0975 17.2325 15.3578 17.3605 14.9655 16.9886C14.6274 15.6046 14.7575 14.111 15.3302 12.8058C15.531 12.3489 15.7881 11.8992 15.827 11.4013C15.8547 11.0499 15.7717 10.6995 15.6877 10.3564C15.4674 9.44767 15.2472 8.53898 15.0269 7.62927C14.9798 7.4336 14.9286 7.23076 14.8056 7.07197C14.6929 6.9265 14.819 6.47062 14.6899 6.33949C14.2576 5.8959 14.0383 4.79052 13.6306 4.5467C12.6266 4.42479 12.2722 5.78833 11.9997 6.76258C11.4045 8.89241 12.3961 11.2937 11.5325 13.3293C11.2959 13.8876 10.9291 14.3865 10.7314 14.9592C10.38 15.9755 10.5962 17.1003 10.3933 18.1555C9.98254 20.2935 7.9531 21.8005 7.38146 23.9016C7.2534 24.3739 7.20013 24.8718 6.98602 25.3123C6.81186 25.6719 6.53731 25.9751 6.36828 26.3378C6.07016 26.975 6.12958 27.7136 6.15929 28.4164C6.21666 29.7799 6.1347 31.1486 5.91957 32.4957C5.72902 33.6892 4.77116 36.6908 4.52734 37.8321H18.3287C19.095 36.2985 22.8332 35.0947 23.0863 34.2947C23.5749 32.7457 25.2274 31.5409 26.5089 30.6271C27.2619 30.0903 28.1224 28.6581 28.7914 28.0189C30.1201 26.7486 31.1517 25.9874 32.4057 24.6443C33.4066 23.5728 34.3726 22.4438 35.5794 21.6099C35.7116 21.5188 35.1532 21.15 35.2301 21.0086V21.0127Z" fill="#DB9700"/>
<path d="M39.915 13.0708C39.872 12.5975 39.706 12.0965 39.3116 11.8302C38.9756 11.6038 38.5443 11.5925 38.1386 11.5894C37.946 11.5874 37.7473 11.5874 37.5711 11.6621C37.4461 11.7154 37.3385 11.8025 37.2371 11.8926C36.7495 12.3229 36.3141 12.8423 36.0047 13.417C35.7148 13.9559 35.9637 14.841 36.0723 15.427C36.1184 15.6729 36.1717 15.9198 36.269 16.1503C36.4944 16.684 36.9595 17.1102 37.5106 17.2894C37.7842 17.3786 38.1069 17.4011 38.3384 17.231C38.4849 17.1235 38.573 16.9555 38.656 16.7946C38.8301 16.4566 39.0043 16.1175 39.1774 15.7794C39.4417 15.2662 39.7081 14.7457 39.8382 14.1833C39.9222 13.8196 39.9488 13.4426 39.915 13.0718V13.0708Z" fill="#DB9700"/>
<path d="M66.2198 35.5891C66.1 35.4405 65.9719 35.2961 65.8859 35.126C65.7291 34.8125 65.7312 34.4478 65.7056 34.0985C65.5468 31.9625 64.2181 29.847 64.8676 27.8053C65.2056 26.744 66.0641 25.6826 65.6461 24.651C65.5519 24.4195 65.3993 24.2167 65.2927 23.9903C65.1124 23.6071 65.0745 23.1748 65.0335 22.7537C64.8983 21.3615 64.4168 20.4334 64.1648 19.0575C64.0859 18.6283 64.2847 17.7268 64.0388 17.3672C63.8831 17.1377 63.6679 16.9492 63.5399 16.7034C63.1742 16.0026 63.6075 15.0612 63.1885 14.3912C62.8771 13.8923 62.1907 13.7222 61.8936 13.2151C61.703 12.8904 61.7102 12.4918 61.6733 12.1169C61.5811 11.1836 61.1857 10.3118 60.7954 9.45845C60.0352 7.79577 59.2741 6.13411 58.5139 4.47143C58.4105 4.244 58.2896 4.00019 58.0652 3.89159C57.7384 3.73383 57.3532 3.93257 57.0684 4.15795C56.3349 4.73676 55.7766 5.53481 55.4846 6.42198C55.2388 7.16778 55.3719 8.24858 56.1454 8.38175C56.3882 8.42376 56.6648 8.35921 56.8615 8.50673C56.9803 8.59586 57.0387 8.74133 57.092 8.87964C57.2979 9.41542 57.5038 9.95018 57.7097 10.486C58.0038 11.2502 58.265 12.2111 57.7046 12.8084C57.0869 13.4681 55.9118 13.1024 55.3597 12.3873C54.8075 11.6723 54.6446 10.739 54.285 9.90921C53.7605 8.69421 52.8221 7.71484 51.9032 6.7621C51.6952 6.54696 51.4801 6.32568 51.2076 6.20275C51.0129 6.11465 50.7988 6.08084 50.5888 6.04601C49.0962 5.80424 47.6097 5.52149 46.1335 5.19572C46.1222 5.47334 46.112 5.75199 46.1007 6.02962C45.9224 6.09109 45.7257 6.10031 45.5424 6.05421C45.4368 6.72932 45.3324 7.52839 45.4819 8.20145C45.526 8.39917 45.5823 8.59689 45.6458 8.79358C45.2647 8.99847 44.899 9.27302 44.4769 9.35908C44.6214 10.6919 44.5917 12.0431 44.3878 13.3688C44.3632 13.5276 44.3274 13.7017 44.1993 13.798C44.0272 13.9281 43.7824 13.8554 43.5693 13.8902C43.2517 13.9414 43.0212 14.2426 42.9495 14.5571C42.8788 14.8716 42.9341 15.1984 42.9894 15.516C42.7231 15.4166 42.4188 15.6082 42.2928 15.8633C42.1668 16.1184 42.1729 16.4165 42.1811 16.7003C42.1996 17.3262 42.219 17.9511 42.2375 18.5771C42.2416 18.7246 42.2508 18.8844 42.342 19.0002C42.4373 19.121 42.5991 19.1641 42.7272 19.2512C43.1564 19.5431 43.0796 20.1865 42.9536 20.6895C42.9177 20.8339 42.8624 21.0009 42.721 21.0491C42.6299 21.0808 42.5295 21.0501 42.4393 21.0153C41.8789 20.8001 41.4046 20.4108 40.9416 20.0287C39.5114 18.8475 38.0813 17.6674 36.6522 16.4862C36.4709 16.3366 36.2834 16.1788 36.1943 15.9627C36.0877 15.7066 36.1369 15.4166 36.1369 15.14C36.1379 14.3983 35.7773 13.6935 35.2856 13.1383C34.7949 12.583 34.1781 12.1548 33.5686 11.7337C33.4037 11.62 33.1742 11.5073 33.0215 11.6354C32.9099 11.7297 32.9119 11.8977 32.8617 12.0349C32.7347 12.3812 32.2819 12.5031 32.1149 12.832C32.034 12.9907 32.0319 13.1772 32.0319 13.3555C32.0309 13.8974 32.0289 14.4393 32.0278 14.9813C32.0278 15.2947 32.0309 15.6236 32.1866 15.8951C32.3116 16.1122 32.5206 16.268 32.663 16.4729C32.8494 16.7413 32.9099 17.0752 33.0297 17.3805C33.5225 18.6273 35.008 19.3526 35.2743 20.6669C35.3184 20.8821 35.3286 21.1126 35.4454 21.298C35.5386 21.4455 35.6872 21.5459 35.8285 21.6484C36.2885 21.9823 36.7024 22.3778 37.0599 22.8193C37.3642 23.1943 37.5783 23.8253 37.944 24.1245C38.236 24.3621 38.7964 24.3437 39.1467 24.4451C39.7061 24.607 40.246 24.8487 40.709 25.2053C41.0071 25.4347 41.2684 25.7062 41.5286 25.9767C42.3799 26.8628 43.2312 27.7479 44.0825 28.6341C44.2423 28.8011 44.4083 28.9711 44.6193 29.0654C44.7812 29.1381 44.9595 29.1617 45.1244 29.2252C45.5434 29.3891 45.8138 29.7876 46.1427 30.0929C46.742 30.6482 47.5124 30.8817 48.333 30.9524C48.5563 31.3888 48.8851 31.7617 49.214 32.1264C50.6636 33.7379 52.1613 35.3063 53.7021 36.8307C53.9377 37.0633 54.1826 37.3009 54.4868 37.43C54.7931 37.5591 54.5206 37.3757 55.1333 37.8357C55.1333 37.8357 67.3221 37.848 67.401 37.8357C67.1695 37.0796 66.7177 36.2027 66.2198 35.5891Z" fill="#FFC629"/>
<path d="M12.8745 4.17773H12.0918V4.96041H12.8745V4.17773Z" fill="black"/>
<path d="M13.6572 4.17773H12.8745V4.96041H13.6572V4.17773Z" fill="black"/>
<path d="M14.4399 4.17773H13.6572V4.96041H14.4399V4.17773Z" fill="black"/>
<path d="M12.8745 4.96094H12.0918V5.74362H12.8745V4.96094Z" fill="black"/>
<path d="M14.4399 4.96094H13.6572V5.74362H14.4399V4.96094Z" fill="black"/>
<path d="M12.0918 5.74316H11.3091V6.52584H12.0918V5.74316Z" fill="black"/>
<path d="M12.8745 5.74316H12.0918V6.52584H12.8745V5.74316Z" fill="black"/>
<path d="M14.4399 5.74316H13.6572V6.52584H14.4399V5.74316Z" fill="black"/>
<path d="M15.2226 5.74316H14.4399V6.52584H15.2226V5.74316Z" fill="black"/>
<path d="M12.0918 6.52637H11.3091V7.30905H12.0918V6.52637Z" fill="black"/>
<path d="M15.2226 6.52637H14.4399V7.30905H15.2226V6.52637Z" fill="black"/>
<path d="M12.0918 7.30859H11.3091V8.09127H12.0918V7.30859Z" fill="black"/>
<path d="M15.2226 7.30859H14.4399V8.09127H15.2226V7.30859Z" fill="black"/>
<path d="M16.0053 7.30859H15.2227V8.09127H16.0053V7.30859Z" fill="black"/>
<path d="M21.4838 7.30859H20.7012V8.09127H21.4838V7.30859Z" fill="black"/>
<path d="M22.2666 7.30859H21.4839V8.09127H22.2666V7.30859Z" fill="black"/>
<path d="M23.0493 7.30859H22.2666V8.09127H23.0493V7.30859Z" fill="black"/>
<path d="M23.832 7.30859H23.0493V8.09127H23.832V7.30859Z" fill="black"/>
<path d="M24.6147 7.30859H23.832V8.09127H24.6147V7.30859Z" fill="black"/>
<path d="M12.0918 8.0918H11.3091V8.87448H12.0918V8.0918Z" fill="black"/>
<path d="M16.0053 8.0918H15.2227V8.87448H16.0053V8.0918Z" fill="black"/>
<path d="M20.7011 8.0918H19.9185V8.87448H20.7011V8.0918Z" fill="black"/>
<path d="M21.4838 8.0918H20.7012V8.87448H21.4838V8.0918Z" fill="black"/>
<path d="M24.6147 8.0918H23.832V8.87448H24.6147V8.0918Z" fill="black"/>
<path d="M25.3974 8.0918H24.6147V8.87448H25.3974V8.0918Z" fill="black"/>
<path d="M26.1801 8.0918H25.3975V8.87448H26.1801V8.0918Z" fill="black"/>
<path d="M12.0918 8.87402H11.3091V9.6567H12.0918V8.87402Z" fill="black"/>
<path d="M16.0053 8.87402H15.2227V9.6567H16.0053V8.87402Z" fill="black"/>
<path d="M20.7011 8.87402H19.9185V9.6567H20.7011V8.87402Z" fill="black"/>
<path d="M26.1801 8.87402H25.3975V9.6567H26.1801V8.87402Z" fill="black"/>
<path d="M26.9629 8.87402H26.1802V9.6567H26.9629V8.87402Z" fill="black"/>
<path d="M12.0918 9.65723H11.3091V10.4399H12.0918V9.65723Z" fill="black"/>
<path d="M16.0053 9.65723H15.2227V10.4399H16.0053V9.65723Z" fill="black"/>
<path d="M19.1362 9.65723H18.3535V10.4399H19.1362V9.65723Z" fill="black"/>
<path d="M19.9189 9.65723H19.1362V10.4399H19.9189V9.65723Z" fill="black"/>
<path d="M20.7011 9.65723H19.9185V10.4399H20.7011V9.65723Z" fill="black"/>
<path d="M26.9629 9.65723H26.1802V10.4399H26.9629V9.65723Z" fill="black"/>
<path d="M12.0918 10.4395H11.3091V11.2221H12.0918V10.4395Z" fill="black"/>
<path d="M16.0053 10.4395H15.2227V11.2221H16.0053V10.4395Z" fill="black"/>
<path d="M18.3535 10.4395H17.5708V11.2221H18.3535V10.4395Z" fill="black"/>
<path d="M19.1362 10.4395H18.3535V11.2221H19.1362V10.4395Z" fill="black"/>
<path d="M26.9629 10.4395H26.1802V11.2221H26.9629V10.4395Z" fill="black"/>
<path d="M12.0918 11.2217H11.3091V12.0044H12.0918V11.2217Z" fill="black"/>
<path d="M16.0053 11.2217H15.2227V12.0044H16.0053V11.2217Z" fill="black"/>
<path d="M18.3535 11.2217H17.5708V12.0044H18.3535V11.2217Z" fill="black"/>
<path d="M23.832 11.2217H23.0493V12.0044H23.832V11.2217Z" fill="black"/>
<path d="M24.6147 11.2217H23.832V12.0044H24.6147V11.2217Z" fill="black"/>
<path d="M25.3974 11.2217H24.6147V12.0044H25.3974V11.2217Z" fill="black"/>
<path d="M26.1801 11.2217H25.3975V12.0044H26.1801V11.2217Z" fill="black"/>
<path d="M26.9629 11.2217H26.1802V12.0044H26.9629V11.2217Z" fill="black"/>
<path d="M33.2241 11.2217H32.4414V12.0044H33.2241V11.2217Z" fill="black"/>
<path d="M34.0068 11.2217H33.2241V12.0044H34.0068V11.2217Z" fill="black"/>
<path d="M37.9204 11.2217H37.1377V12.0044H37.9204V11.2217Z" fill="black"/>
<path d="M38.7031 11.2217H37.9204V12.0044H38.7031V11.2217Z" fill="black"/>
<path d="M39.4858 11.2217H38.7031V12.0044H39.4858V11.2217Z" fill="black"/>
<path d="M12.0918 12.0049H11.3091V12.7876H12.0918V12.0049Z" fill="black"/>
<path d="M16.0053 12.0049H15.2227V12.7876H16.0053V12.0049Z" fill="black"/>
<path d="M17.5708 12.0049H16.7881V12.7876H17.5708V12.0049Z" fill="black"/>
<path d="M18.3535 12.0049H17.5708V12.7876H18.3535V12.0049Z" fill="black"/>
<path d="M22.2666 12.0049H21.4839V12.7876H22.2666V12.0049Z" fill="black"/>
<path d="M23.0493 12.0049H22.2666V12.7876H23.0493V12.0049Z" fill="black"/>
<path d="M23.832 12.0049H23.0493V12.7876H23.832V12.0049Z" fill="black"/>
<path d="M26.9629 12.0049H26.1802V12.7876H26.9629V12.0049Z" fill="black"/>
<path d="M27.7456 12.0049H26.9629V12.7876H27.7456V12.0049Z" fill="black"/>
<path d="M32.4414 12.0049H31.6587V12.7876H32.4414V12.0049Z" fill="black"/>
<path d="M33.2241 12.0049H32.4414V12.7876H33.2241V12.0049Z" fill="black"/>
<path d="M34.7895 12.0049H34.0068V12.7876H34.7895V12.0049Z" fill="black"/>
<path d="M37.1377 12.0049H36.355V12.7876H37.1377V12.0049Z" fill="black"/>
<path d="M40.2685 12.0049H39.4858V12.7876H40.2685V12.0049Z" fill="black"/>
<path d="M11.309 12.7871H10.5264V13.5698H11.309V12.7871Z" fill="black"/>
<path d="M12.0918 12.7871H11.3091V13.5698H12.0918V12.7871Z" fill="black"/>
<path d="M15.2226 12.7871H14.4399V13.5698H15.2226V12.7871Z" fill="black"/>
<path d="M16.0053 12.7871H15.2227V13.5698H16.0053V12.7871Z" fill="black"/>
<path d="M17.5708 12.7871H16.7881V13.5698H17.5708V12.7871Z" fill="black"/>
<path d="M21.4838 12.7871H20.7012V13.5698H21.4838V12.7871Z" fill="black"/>
<path d="M22.2666 12.7871H21.4839V13.5698H22.2666V12.7871Z" fill="black"/>
<path d="M27.7456 12.7871H26.9629V13.5698H27.7456V12.7871Z" fill="black"/>
<path d="M28.5283 12.7871H27.7456V13.5698H28.5283V12.7871Z" fill="black"/>
<path d="M32.4414 12.7871H31.6587V13.5698H32.4414V12.7871Z" fill="black"/>
<path d="M35.5722 12.7871H34.7896V13.5698H35.5722V12.7871Z" fill="black"/>
<path d="M36.3549 12.7871H35.5723V13.5698H36.3549V12.7871Z" fill="black"/>
<path d="M40.2685 12.7871H39.4858V13.5698H40.2685V12.7871Z" fill="black"/>
<path d="M11.309 13.5703H10.5264V14.353H11.309V13.5703Z" fill="black"/>
<path d="M15.2226 13.5703H14.4399V14.353H15.2226V13.5703Z" fill="black"/>
<path d="M17.5708 13.5703H16.7881V14.353H17.5708V13.5703Z" fill="black"/>
<path d="M21.4838 13.5703H20.7012V14.353H21.4838V13.5703Z" fill="black"/>
<path d="M28.5283 13.5703H27.7456V14.353H28.5283V13.5703Z" fill="black"/>
<path d="M32.4414 13.5703H31.6587V14.353H32.4414V13.5703Z" fill="black"/>
<path d="M35.5722 13.5703H34.7896V14.353H35.5722V13.5703Z" fill="black"/>
<path d="M36.3549 13.5703H35.5723V14.353H36.3549V13.5703Z" fill="black"/>
<path d="M40.2685 13.5703H39.4858V14.353H40.2685V13.5703Z" fill="black"/>
<path d="M43.3989 13.5703H42.6162V14.353H43.3989V13.5703Z" fill="black"/>
<path d="M11.309 14.3525H10.5264V15.1352H11.309V14.3525Z" fill="black"/>
<path d="M15.2226 14.3525H14.4399V15.1352H15.2226V14.3525Z" fill="black"/>
<path d="M16.788 14.3525H16.0054V15.1352H16.788V14.3525Z" fill="black"/>
<path d="M17.5708 14.3525H16.7881V15.1352H17.5708V14.3525Z" fill="black"/>
<path d="M20.7011 14.3525H19.9185V15.1352H20.7011V14.3525Z" fill="black"/>
<path d="M21.4838 14.3525H20.7012V15.1352H21.4838V14.3525Z" fill="black"/>
<path d="M24.6147 14.3525H23.832V15.1352H24.6147V14.3525Z" fill="black"/>
<path d="M25.3974 14.3525H24.6147V15.1352H25.3974V14.3525Z" fill="black"/>
<path d="M26.1801 14.3525H25.3975V15.1352H26.1801V14.3525Z" fill="black"/>
<path d="M26.9629 14.3525H26.1802V15.1352H26.9629V14.3525Z" fill="black"/>
<path d="M27.7456 14.3525H26.9629V15.1352H27.7456V14.3525Z" fill="black"/>
<path d="M28.5283 14.3525H27.7456V15.1352H28.5283V14.3525Z" fill="black"/>
<path d="M29.311 14.3525H28.5283V15.1352H29.311V14.3525Z" fill="black"/>
<path d="M32.4414 14.3525H31.6587V15.1352H32.4414V14.3525Z" fill="black"/>
<path d="M36.3549 14.3525H35.5723V15.1352H36.3549V14.3525Z" fill="black"/>
<path d="M40.2685 14.3525H39.4858V15.1352H40.2685V14.3525Z" fill="black"/>
<path d="M43.3989 14.3525H42.6162V15.1352H43.3989V14.3525Z" fill="black"/>
<path d="M10.5263 15.1357H9.74365V15.9184H10.5263V15.1357Z" fill="black"/>
<path d="M11.309 15.1357H10.5264V15.9184H11.309V15.1357Z" fill="black"/>
<path d="M15.2226 15.1357H14.4399V15.9184H15.2226V15.1357Z" fill="black"/>
<path d="M16.788 15.1357H16.0054V15.9184H16.788V15.1357Z" fill="black"/>
<path d="M20.7011 15.1357H19.9185V15.9184H20.7011V15.1357Z" fill="black"/>
<path d="M23.832 15.1357H23.0493V15.9184H23.832V15.1357Z" fill="black"/>
<path d="M24.6147 15.1357H23.832V15.9184H24.6147V15.1357Z" fill="black"/>
<path d="M29.311 15.1357H28.5283V15.9184H29.311V15.1357Z" fill="black"/>
<path d="M30.0937 15.1357H29.311V15.9184H30.0937V15.1357Z" fill="black"/>
<path d="M32.4414 15.1357H31.6587V15.9184H32.4414V15.1357Z" fill="black"/>
<path d="M36.3549 15.1357H35.5723V15.9184H36.3549V15.1357Z" fill="black"/>
<path d="M39.4858 15.1357H38.7031V15.9184H39.4858V15.1357Z" fill="black"/>
<path d="M42.6162 15.1357H41.8335V15.9184H42.6162V15.1357Z" fill="black"/>
<path d="M43.3989 15.1357H42.6162V15.9184H43.3989V15.1357Z" fill="black"/>
<path d="M10.5263 15.918H9.74365V16.7006H10.5263V15.918Z" fill="black"/>
<path d="M15.2226 15.918H14.4399V16.7006H15.2226V15.918Z" fill="black"/>
<path d="M16.788 15.918H16.0054V16.7006H16.788V15.918Z" fill="black"/>
<path d="M20.7011 15.918H19.9185V16.7006H20.7011V15.918Z" fill="black"/>
<path d="M23.832 15.918H23.0493V16.7006H23.832V15.918Z" fill="black"/>
<path d="M30.0937 15.918H29.311V16.7006H30.0937V15.918Z" fill="black"/>
<path d="M32.4414 15.918H31.6587V16.7006H32.4414V15.918Z" fill="black"/>
<path d="M33.2241 15.918H32.4414V16.7006H33.2241V15.918Z" fill="black"/>
<path d="M36.3549 15.918H35.5723V16.7006H36.3549V15.918Z" fill="black"/>
<path d="M37.1377 15.918H36.355V16.7006H37.1377V15.918Z" fill="black"/>
<path d="M39.4858 15.918H38.7031V16.7006H39.4858V15.918Z" fill="black"/>
<path d="M42.6162 15.918H41.8335V16.7006H42.6162V15.918Z" fill="black"/>
<path d="M10.5263 16.7012H9.74365V17.4838H10.5263V16.7012Z" fill="black"/>
<path d="M15.2226 16.7012H14.4399V17.4838H15.2226V16.7012Z" fill="black"/>
<path d="M16.0053 16.7012H15.2227V17.4838H16.0053V16.7012Z" fill="black"/>
<path d="M16.788 16.7012H16.0054V17.4838H16.788V16.7012Z" fill="black"/>
<path d="M20.7011 16.7012H19.9185V17.4838H20.7011V16.7012Z" fill="black"/>
<path d="M23.0493 16.7012H22.2666V17.4838H23.0493V16.7012Z" fill="black"/>
<path d="M23.832 16.7012H23.0493V17.4838H23.832V16.7012Z" fill="black"/>
<path d="M30.0937 16.7012H29.311V17.4838H30.0937V16.7012Z" fill="black"/>
<path d="M33.2241 16.7012H32.4414V17.4838H33.2241V16.7012Z" fill="black"/>
<path d="M37.1377 16.7012H36.355V17.4838H37.1377V16.7012Z" fill="black"/>
<path d="M37.9204 16.7012H37.1377V17.4838H37.9204V16.7012Z" fill="black"/>
<path d="M38.7031 16.7012H37.9204V17.4838H38.7031V16.7012Z" fill="black"/>
<path d="M39.4858 16.7012H38.7031V17.4838H39.4858V16.7012Z" fill="black"/>
<path d="M42.6162 16.7012H41.8335V17.4838H42.6162V16.7012Z" fill="black"/>
<path d="M10.5263 17.4834H9.74365V18.2661H10.5263V17.4834Z" fill="black"/>
<path d="M16.0053 17.4834H15.2227V18.2661H16.0053V17.4834Z" fill="black"/>
<path d="M16.788 17.4834H16.0054V18.2661H16.788V17.4834Z" fill="black"/>
<path d="M17.5708 17.4834H16.7881V18.2661H17.5708V17.4834Z" fill="black"/>
<path d="M19.1362 17.4834H18.3535V18.2661H19.1362V17.4834Z" fill="black"/>
<path d="M19.9189 17.4834H19.1362V18.2661H19.9189V17.4834Z" fill="black"/>
<path d="M20.7011 17.4834H19.9185V18.2661H20.7011V17.4834Z" fill="black"/>
<path d="M22.2666 17.4834H21.4839V18.2661H22.2666V17.4834Z" fill="black"/>
<path d="M23.0493 17.4834H22.2666V18.2661H23.0493V17.4834Z" fill="black"/>
<path d="M30.0937 17.4834H29.311V18.2661H30.0937V17.4834Z" fill="black"/>
<path d="M33.2241 17.4834H32.4414V18.2661H33.2241V17.4834Z" fill="black"/>
<path d="M34.0068 17.4834H33.2241V18.2661H34.0068V17.4834Z" fill="black"/>
<path d="M37.9204 17.4834H37.1377V18.2661H37.9204V17.4834Z" fill="black"/>
<path d="M38.7031 17.4834H37.9204V18.2661H38.7031V17.4834Z" fill="black"/>
<path d="M39.4858 17.4834H38.7031V18.2661H39.4858V17.4834Z" fill="black"/>
<path d="M42.6162 17.4834H41.8335V18.2661H42.6162V17.4834Z" fill="black"/>
<path d="M10.5263 18.2666H9.74365V19.0493H10.5263V18.2666Z" fill="black"/>
<path d="M16.0053 18.2666H15.2227V19.0493H16.0053V18.2666Z" fill="black"/>
<path d="M17.5708 18.2666H16.7881V19.0493H17.5708V18.2666Z" fill="black"/>
<path d="M18.3535 18.2666H17.5708V19.0493H18.3535V18.2666Z" fill="black"/>
<path d="M19.1362 18.2666H18.3535V19.0493H19.1362V18.2666Z" fill="black"/>
<path d="M22.2666 18.2666H21.4839V19.0493H22.2666V18.2666Z" fill="black"/>
<path d="M29.311 18.2666H28.5283V19.0493H29.311V18.2666Z" fill="black"/>
<path d="M30.0937 18.2666H29.311V19.0493H30.0937V18.2666Z" fill="black"/>
<path d="M33.2241 18.2666H32.4414V19.0493H33.2241V18.2666Z" fill="black"/>
<path d="M34.0068 18.2666H33.2241V19.0493H34.0068V18.2666Z" fill="black"/>
<path d="M34.7895 18.2666H34.0068V19.0493H34.7895V18.2666Z" fill="black"/>
<path d="M39.4858 18.2666H38.7031V19.0493H39.4858V18.2666Z" fill="black"/>
<path d="M40.2685 18.2666H39.4858V19.0493H40.2685V18.2666Z" fill="black"/>
<path d="M42.6162 18.2666H41.8335V19.0493H42.6162V18.2666Z" fill="black"/>
<path d="M9.74362 19.0488H8.96094V19.8315H9.74362V19.0488Z" fill="black"/>
<path d="M10.5263 19.0488H9.74365V19.8315H10.5263V19.0488Z" fill="black"/>
<path d="M16.0053 19.0488H15.2227V19.8315H16.0053V19.0488Z" fill="black"/>
<path d="M19.1362 19.0488H18.3535V19.8315H19.1362V19.0488Z" fill="black"/>
<path d="M21.4838 19.0488H20.7012V19.8315H21.4838V19.0488Z" fill="black"/>
<path d="M22.2666 19.0488H21.4839V19.8315H22.2666V19.0488Z" fill="black"/>
<path d="M25.3974 19.0488H24.6147V19.8315H25.3974V19.0488Z" fill="black"/>
<path d="M26.1801 19.0488H25.3975V19.8315H26.1801V19.0488Z" fill="black"/>
<path d="M26.9629 19.0488H26.1802V19.8315H26.9629V19.0488Z" fill="black"/>
<path d="M27.7456 19.0488H26.9629V19.8315H27.7456V19.0488Z" fill="black"/>
<path d="M29.311 19.0488H28.5283V19.8315H29.311V19.0488Z" fill="black"/>
<path d="M31.6587 19.0488H30.876V19.8315H31.6587V19.0488Z" fill="black"/>
<path d="M32.4414 19.0488H31.6587V19.8315H32.4414V19.0488Z" fill="black"/>
<path d="M33.2241 19.0488H32.4414V19.8315H33.2241V19.0488Z" fill="black"/>
<path d="M34.7895 19.0488H34.0068V19.8315H34.7895V19.0488Z" fill="black"/>
<path d="M35.5722 19.0488H34.7896V19.8315H35.5722V19.0488Z" fill="black"/>
<path d="M40.2685 19.0488H39.4858V19.8315H40.2685V19.0488Z" fill="black"/>
<path d="M41.0512 19.0488H40.2686V19.8315H41.0512V19.0488Z" fill="black"/>
<path d="M42.6162 19.0488H41.8335V19.8315H42.6162V19.0488Z" fill="black"/>
<path d="M43.3989 19.0488H42.6162V19.8315H43.3989V19.0488Z" fill="black"/>
<path d="M9.74362 19.832H8.96094V20.6147H9.74362V19.832Z" fill="black"/>
<path d="M15.2226 19.832H14.4399V20.6147H15.2226V19.832Z" fill="black"/>
<path d="M16.0053 19.832H15.2227V20.6147H16.0053V19.832Z" fill="black"/>
<path d="M18.3535 19.832H17.5708V20.6147H18.3535V19.832Z" fill="black"/>
<path d="M19.1362 19.832H18.3535V20.6147H19.1362V19.832Z" fill="black"/>
<path d="M21.4838 19.832H20.7012V20.6147H21.4838V19.832Z" fill="black"/>
<path d="M24.6147 19.832H23.832V20.6147H24.6147V19.832Z" fill="black"/>
<path d="M25.3974 19.832H24.6147V20.6147H25.3974V19.832Z" fill="black"/>
<path d="M29.311 19.832H28.5283V20.6147H29.311V19.832Z" fill="black"/>
<path d="M30.0937 19.832H29.311V20.6147H30.0937V19.832Z" fill="black"/>
<path d="M30.8759 19.832H30.0933V20.6147H30.8759V19.832Z" fill="black"/>
<path d="M31.6587 19.832H30.876V20.6147H31.6587V19.832Z" fill="black"/>
<path d="M32.4414 19.832H31.6587V20.6147H32.4414V19.832Z" fill="black"/>
<path d="M35.5722 19.832H34.7896V20.6147H35.5722V19.832Z" fill="black"/>
<path d="M41.0512 19.832H40.2686V20.6147H41.0512V19.832Z" fill="black"/>
<path d="M41.8335 19.832H41.0508V20.6147H41.8335V19.832Z" fill="black"/>
<path d="M43.3989 19.832H42.6162V20.6147H43.3989V19.832Z" fill="black"/>
<path d="M8.96139 20.6133H8.17871V21.396H8.96139V20.6133Z" fill="black"/>
<path d="M9.74362 20.6133H8.96094V21.396H9.74362V20.6133Z" fill="black"/>
<path d="M15.2226 20.6133H14.4399V21.396H15.2226V20.6133Z" fill="black"/>
<path d="M18.3535 20.6133H17.5708V21.396H18.3535V20.6133Z" fill="black"/>
<path d="M20.7011 20.6133H19.9185V21.396H20.7011V20.6133Z" fill="black"/>
<path d="M21.4838 20.6133H20.7012V21.396H21.4838V20.6133Z" fill="black"/>
<path d="M24.6147 20.6133H23.832V21.396H24.6147V20.6133Z" fill="black"/>
<path d="M29.311 20.6133H28.5283V21.396H29.311V20.6133Z" fill="black"/>
<path d="M35.5722 20.6133H34.7896V21.396H35.5722V20.6133Z" fill="black"/>
<path d="M41.8335 20.6133H41.0508V21.396H41.8335V20.6133Z" fill="black"/>
<path d="M42.6162 20.6133H41.8335V21.396H42.6162V20.6133Z" fill="black"/>
<path d="M43.3989 20.6133H42.6162V21.396H43.3989V20.6133Z" fill="black"/>
<path d="M8.17868 21.3955H7.396V22.1782H8.17868V21.3955Z" fill="black"/>
<path d="M8.96139 21.3955H8.17871V22.1782H8.96139V21.3955Z" fill="black"/>
<path d="M15.2226 21.3955H14.4399V22.1782H15.2226V21.3955Z" fill="black"/>
<path d="M18.3535 21.3955H17.5708V22.1782H18.3535V21.3955Z" fill="black"/>
<path d="M20.7011 21.3955H19.9185V22.1782H20.7011V21.3955Z" fill="black"/>
<path d="M24.6147 21.3955H23.832V22.1782H24.6147V21.3955Z" fill="black"/>
<path d="M29.311 21.3955H28.5283V22.1782H29.311V21.3955Z" fill="black"/>
<path d="M34.7895 21.3955H34.0068V22.1782H34.7895V21.3955Z" fill="black"/>
<path d="M35.5722 21.3955H34.7896V22.1782H35.5722V21.3955Z" fill="black"/>
<path d="M36.3549 21.3955H35.5723V22.1782H36.3549V21.3955Z" fill="black"/>
<path d="M37.1377 21.3955H36.355V22.1782H37.1377V21.3955Z" fill="black"/>
<path d="M43.3989 21.3955H42.6162V22.1782H43.3989V21.3955Z" fill="black"/>
<path d="M8.17868 22.1787H7.396V22.9614H8.17868V22.1787Z" fill="black"/>
<path d="M18.3535 22.1787H17.5708V22.9614H18.3535V22.1787Z" fill="black"/>
<path d="M19.9189 22.1787H19.1362V22.9614H19.9189V22.1787Z" fill="black"/>
<path d="M20.7011 22.1787H19.9185V22.9614H20.7011V22.1787Z" fill="black"/>
<path d="M23.832 22.1787H23.0493V22.9614H23.832V22.1787Z" fill="black"/>
<path d="M24.6147 22.1787H23.832V22.9614H24.6147V22.1787Z" fill="black"/>
<path d="M34.7895 22.1787H34.0068V22.9614H34.7895V22.1787Z" fill="black"/>
<path d="M37.1377 22.1787H36.355V22.9614H37.1377V22.1787Z" fill="black"/>
<path d="M7.39596 22.9609H6.61328V23.7436H7.39596V22.9609Z" fill="black"/>
<path d="M8.17868 22.9609H7.396V23.7436H8.17868V22.9609Z" fill="black"/>
<path d="M18.3535 22.9609H17.5708V23.7436H18.3535V22.9609Z" fill="black"/>
<path d="M19.1362 22.9609H18.3535V23.7436H19.1362V22.9609Z" fill="black"/>
<path d="M19.9189 22.9609H19.1362V23.7436H19.9189V22.9609Z" fill="black"/>
<path d="M23.0493 22.9609H22.2666V23.7436H23.0493V22.9609Z" fill="black"/>
<path d="M23.832 22.9609H23.0493V23.7436H23.832V22.9609Z" fill="black"/>
<path d="M34.0068 22.9609H33.2241V23.7436H34.0068V22.9609Z" fill="black"/>
<path d="M34.7895 22.9609H34.0068V23.7436H34.7895V22.9609Z" fill="black"/>
<path d="M37.1377 22.9609H36.355V23.7436H37.1377V22.9609Z" fill="black"/>
<path d="M37.9204 22.9609H37.1377V23.7436H37.9204V22.9609Z" fill="black"/>
<path d="M7.39596 23.7441H6.61328V24.5268H7.39596V23.7441Z" fill="black"/>
<path d="M19.9189 23.7441H19.1362V24.5268H19.9189V23.7441Z" fill="black"/>
<path d="M22.2666 23.7441H21.4839V24.5268H22.2666V23.7441Z" fill="black"/>
<path d="M23.0493 23.7441H22.2666V24.5268H23.0493V23.7441Z" fill="black"/>
<path d="M33.2241 23.7441H32.4414V24.5268H33.2241V23.7441Z" fill="black"/>
<path d="M34.0068 23.7441H33.2241V24.5268H34.0068V23.7441Z" fill="black"/>
<path d="M37.9204 23.7441H37.1377V24.5268H37.9204V23.7441Z" fill="black"/>
<path d="M38.7031 23.7441H37.9204V24.5268H38.7031V23.7441Z" fill="black"/>
<path d="M39.4858 23.7441H38.7031V24.5268H39.4858V23.7441Z" fill="black"/>
<path d="M7.39596 24.5264H6.61328V25.309H7.39596V24.5264Z" fill="black"/>
<path d="M19.9189 24.5264H19.1362V25.309H19.9189V24.5264Z" fill="black"/>
<path d="M20.7011 24.5264H19.9185V25.309H20.7011V24.5264Z" fill="black"/>
<path d="M21.4838 24.5264H20.7012V25.309H21.4838V24.5264Z" fill="black"/>
<path d="M22.2666 24.5264H21.4839V25.309H22.2666V24.5264Z" fill="black"/>
<path d="M32.4414 24.5264H31.6587V25.309H32.4414V24.5264Z" fill="black"/>
<path d="M33.2241 24.5264H32.4414V25.309H33.2241V24.5264Z" fill="black"/>
<path d="M39.4858 24.5264H38.7031V25.309H39.4858V24.5264Z" fill="black"/>
<path d="M40.2685 24.5264H39.4858V25.309H40.2685V24.5264Z" fill="black"/>
<path d="M41.0512 24.5264H40.2686V25.309H41.0512V24.5264Z" fill="black"/>
<path d="M6.61422 25.3096H5.83154V26.0923H6.61422V25.3096Z" fill="black"/>
<path d="M7.39596 25.3096H6.61328V26.0923H7.39596V25.3096Z" fill="black"/>
<path d="M30.8759 25.3096H30.0933V26.0923H30.8759V25.3096Z" fill="black"/>
<path d="M31.6587 25.3096H30.876V26.0923H31.6587V25.3096Z" fill="black"/>
<path d="M32.4414 25.3096H31.6587V26.0923H32.4414V25.3096Z" fill="black"/>
<path d="M41.0512 25.3096H40.2686V26.0923H41.0512V25.3096Z" fill="black"/>
<path d="M41.8335 25.3096H41.0508V26.0923H41.8335V25.3096Z" fill="black"/>
<path d="M6.61422 26.0918H5.83154V26.8745H6.61422V26.0918Z" fill="black"/>
<path d="M30.0937 26.0918H29.311V26.8745H30.0937V26.0918Z" fill="black"/>
<path d="M30.8759 26.0918H30.0933V26.8745H30.8759V26.0918Z" fill="black"/>
<path d="M41.8335 26.0918H41.0508V26.8745H41.8335V26.0918Z" fill="black"/>
<path d="M42.6162 26.0918H41.8335V26.8745H42.6162V26.0918Z" fill="black"/>
<path d="M6.61422 26.875H5.83154V27.6577H6.61422V26.875Z" fill="black"/>
<path d="M17.5708 26.875H16.7881V27.6577H17.5708V26.875Z" fill="black"/>
<path d="M18.3535 26.875H17.5708V27.6577H18.3535V26.875Z" fill="black"/>
<path d="M19.1362 26.875H18.3535V27.6577H19.1362V26.875Z" fill="black"/>
<path d="M19.9189 26.875H19.1362V27.6577H19.9189V26.875Z" fill="black"/>
<path d="M20.7011 26.875H19.9185V27.6577H20.7011V26.875Z" fill="black"/>
<path d="M29.311 26.875H28.5283V27.6577H29.311V26.875Z" fill="black"/>
<path d="M30.0937 26.875H29.311V27.6577H30.0937V26.875Z" fill="black"/>
<path d="M42.6162 26.875H41.8335V27.6577H42.6162V26.875Z" fill="black"/>
<path d="M43.3989 26.875H42.6162V27.6577H43.3989V26.875Z" fill="black"/>
<path d="M6.61422 27.6572H5.83154V28.4399H6.61422V27.6572Z" fill="black"/>
<path d="M16.0053 27.6572H15.2227V28.4399H16.0053V27.6572Z" fill="black"/>
<path d="M16.788 27.6572H16.0054V28.4399H16.788V27.6572Z" fill="black"/>
<path d="M17.5708 27.6572H16.7881V28.4399H17.5708V27.6572Z" fill="black"/>
<path d="M28.5283 27.6572H27.7456V28.4399H28.5283V27.6572Z" fill="black"/>
<path d="M29.311 27.6572H28.5283V28.4399H29.311V27.6572Z" fill="black"/>
<path d="M43.3989 27.6572H42.6162V28.4399H43.3989V27.6572Z" fill="black"/>
<path d="M6.61422 28.4404H5.83154V29.2231H6.61422V28.4404Z" fill="black"/>
<path d="M16.0053 28.4404H15.2227V29.2231H16.0053V28.4404Z" fill="black"/>
<path d="M28.5283 28.4404H27.7456V29.2231H28.5283V28.4404Z" fill="black"/>
<path d="M6.61422 29.2227H5.83154V30.0053H6.61422V29.2227Z" fill="black"/>
<path d="M14.4399 29.2227H13.6572V30.0053H14.4399V29.2227Z" fill="black"/>
<path d="M15.2226 29.2227H14.4399V30.0053H15.2226V29.2227Z" fill="black"/>
<path d="M16.0053 29.2227H15.2227V30.0053H16.0053V29.2227Z" fill="black"/>
<path d="M27.7456 29.2227H26.9629V30.0053H27.7456V29.2227Z" fill="black"/>
<path d="M28.5283 29.2227H27.7456V30.0053H28.5283V29.2227Z" fill="black"/>
<path d="M6.61422 30.0059H5.83154V30.7885H6.61422V30.0059Z" fill="black"/>
<path d="M13.6572 30.0059H12.8745V30.7885H13.6572V30.0059Z" fill="black"/>
<path d="M14.4399 30.0059H13.6572V30.7885H14.4399V30.0059Z" fill="black"/>
<path d="M26.9629 30.0059H26.1802V30.7885H26.9629V30.0059Z" fill="black"/>
<path d="M27.7456 30.0059H26.9629V30.7885H27.7456V30.0059Z" fill="black"/>
<path d="M6.61422 30.7881H5.83154V31.5708H6.61422V30.7881Z" fill="black"/>
<path d="M13.6572 30.7881H12.8745V31.5708H13.6572V30.7881Z" fill="black"/>
<path d="M25.3974 30.7881H24.6147V31.5708H25.3974V30.7881Z" fill="black"/>
<path d="M26.1801 30.7881H25.3975V31.5708H26.1801V30.7881Z" fill="black"/>
<path d="M26.9629 30.7881H26.1802V31.5708H26.9629V30.7881Z" fill="black"/>
<path d="M6.61422 31.5703H5.83154V32.353H6.61422V31.5703Z" fill="black"/>
<path d="M12.8745 31.5703H12.0918V32.353H12.8745V31.5703Z" fill="black"/>
<path d="M13.6572 31.5703H12.8745V32.353H13.6572V31.5703Z" fill="black"/>
<path d="M24.6147 31.5703H23.832V32.353H24.6147V31.5703Z" fill="black"/>
<path d="M25.3974 31.5703H24.6147V32.353H25.3974V31.5703Z" fill="black"/>
<path d="M5.83151 32.3535H5.04883V33.1362H5.83151V32.3535Z" fill="black"/>
<path d="M6.61422 32.3535H5.83154V33.1362H6.61422V32.3535Z" fill="black"/>
<path d="M12.0918 32.3535H11.3091V33.1362H12.0918V32.3535Z" fill="black"/>
<path d="M12.8745 32.3535H12.0918V33.1362H12.8745V32.3535Z" fill="black"/>
<path d="M23.832 32.3535H23.0493V33.1362H23.832V32.3535Z" fill="black"/>
<path d="M24.6147 32.3535H23.832V33.1362H24.6147V32.3535Z" fill="black"/>
<path d="M5.83151 33.1357H5.04883V33.9184H5.83151V33.1357Z" fill="black"/>
<path d="M12.0918 33.1357H11.3091V33.9184H12.0918V33.1357Z" fill="black"/>
<path d="M23.832 33.1357H23.0493V33.9184H23.832V33.1357Z" fill="black"/>
<path d="M5.83151 33.9189H5.04883V34.7016H5.83151V33.9189Z" fill="black"/>
<path d="M12.0918 33.9189H11.3091V34.7016H12.0918V33.9189Z" fill="black"/>
<path d="M23.0493 33.9189H22.2666V34.7016H23.0493V33.9189Z" fill="black"/>
<path d="M23.832 33.9189H23.0493V34.7016H23.832V33.9189Z" fill="black"/>
<path d="M5.83151 34.7012H5.04883V35.4839H5.83151V34.7012Z" fill="black"/>
<path d="M12.0918 34.7012H11.3091V35.4839H12.0918V34.7012Z" fill="black"/>
<path d="M22.2666 34.7012H21.4839V35.4839H22.2666V34.7012Z" fill="black"/>
<path d="M23.0493 34.7012H22.2666V35.4839H23.0493V34.7012Z" fill="black"/>
<path d="M5.04879 35.4844H4.26611V36.2671H5.04879V35.4844Z" fill="black"/>
<path d="M5.83151 35.4844H5.04883V36.2671H5.83151V35.4844Z" fill="black"/>
<path d="M20.7011 35.4844H19.9185V36.2671H20.7011V35.4844Z" fill="black"/>
<path d="M21.4838 35.4844H20.7012V36.2671H21.4838V35.4844Z" fill="black"/>
<path d="M22.2666 35.4844H21.4839V36.2671H22.2666V35.4844Z" fill="black"/>
<path d="M5.04879 36.2666H4.26611V37.0493H5.04879V36.2666Z" fill="black"/>
<path d="M19.1362 36.2666H18.3535V37.0493H19.1362V36.2666Z" fill="black"/>
<path d="M19.9189 36.2666H19.1362V37.0493H19.9189V36.2666Z" fill="black"/>
<path d="M20.7011 36.2666H19.9185V37.0493H20.7011V36.2666Z" fill="black"/>
<path d="M5.04879 37.0498H4.26611V37.8325H5.04879V37.0498Z" fill="black"/>
<path d="M18.3535 37.0498H17.5708V37.8325H18.3535V37.0498Z" fill="black"/>
<path d="M19.1362 37.0498H18.3535V37.8325H19.1362V37.0498Z" fill="black"/>
<path d="M57.4873 3.37793H56.7046V4.16061H57.4873V3.37793Z" fill="black"/>
<path d="M58.27 3.37793H57.4873V4.16061H58.27V3.37793Z" fill="black"/>
<path d="M59.0527 3.37793H58.27V4.16061H59.0527V3.37793Z" fill="black"/>
<path d="M56.7046 4.16016H55.9219V4.94283H56.7046V4.16016Z" fill="black"/>
<path d="M57.4873 4.16016H56.7046V4.94283H57.4873V4.16016Z" fill="black"/>
<path d="M59.0527 4.16016H58.27V4.94283H59.0527V4.16016Z" fill="black"/>
<path d="M46.5307 4.94336H45.748V5.72604H46.5307V4.94336Z" fill="black"/>
<path d="M47.3134 4.94336H46.5308V5.72604H47.3134V4.94336Z" fill="black"/>
<path d="M48.0962 4.94336H47.3135V5.72604H48.0962V4.94336Z" fill="black"/>
<path d="M48.8789 4.94336H48.0962V5.72604H48.8789V4.94336Z" fill="black"/>
<path d="M55.9228 4.94336H55.1401V5.72604H55.9228V4.94336Z" fill="black"/>
<path d="M56.7046 4.94336H55.9219V5.72604H56.7046V4.94336Z" fill="black"/>
<path d="M59.0527 4.94336H58.27V5.72604H59.0527V4.94336Z" fill="black"/>
<path d="M45.748 5.72559H44.9653V6.50826H45.748V5.72559Z" fill="black"/>
<path d="M46.5307 5.72559H45.748V6.50826H46.5307V5.72559Z" fill="black"/>
<path d="M48.8789 5.72559H48.0962V6.50826H48.8789V5.72559Z" fill="black"/>
<path d="M49.6616 5.72559H48.8789V6.50826H49.6616V5.72559Z" fill="black"/>
<path d="M50.4443 5.72559H49.6616V6.50826H50.4443V5.72559Z" fill="black"/>
<path d="M51.227 5.72559H50.4443V6.50826H51.227V5.72559Z" fill="black"/>
<path d="M52.0097 5.72559H51.2271V6.50826H52.0097V5.72559Z" fill="black"/>
<path d="M55.9228 5.72559H55.1401V6.50826H55.9228V5.72559Z" fill="black"/>
<path d="M59.0527 5.72559H58.27V6.50826H59.0527V5.72559Z" fill="black"/>
<path d="M59.8354 5.72559H59.0527V6.50826H59.8354V5.72559Z" fill="black"/>
<path d="M45.748 6.50879H44.9653V7.29147H45.748V6.50879Z" fill="black"/>
<path d="M49.6616 6.50879H48.8789V7.29147H49.6616V6.50879Z" fill="black"/>
<path d="M52.0097 6.50879H51.2271V7.29147H52.0097V6.50879Z" fill="black"/>
<path d="M52.7924 6.50879H52.0098V7.29147H52.7924V6.50879Z" fill="black"/>
<path d="M55.9228 6.50879H55.1401V7.29147H55.9228V6.50879Z" fill="black"/>
<path d="M59.8354 6.50879H59.0527V7.29147H59.8354V6.50879Z" fill="black"/>
<path d="M45.748 7.29102H44.9653V8.0737H45.748V7.29102Z" fill="black"/>
<path d="M46.5307 7.29102H45.748V8.0737H46.5307V7.29102Z" fill="black"/>
<path d="M49.6616 7.29102H48.8789V8.0737H49.6616V7.29102Z" fill="black"/>
<path d="M50.4443 7.29102H49.6616V8.0737H50.4443V7.29102Z" fill="black"/>
<path d="M52.7924 7.29102H52.0098V8.0737H52.7924V7.29102Z" fill="black"/>
<path d="M53.5747 7.29102H52.792V8.0737H53.5747V7.29102Z" fill="black"/>
<path d="M55.9228 7.29102H55.1401V8.0737H55.9228V7.29102Z" fill="black"/>
<path d="M59.8354 7.29102H59.0527V8.0737H59.8354V7.29102Z" fill="black"/>
<path d="M60.6181 7.29102H59.8354V8.0737H60.6181V7.29102Z" fill="black"/>
<path d="M45.748 8.07422H44.9653V8.8569H45.748V8.07422Z" fill="black"/>
<path d="M46.5307 8.07422H45.748V8.8569H46.5307V8.07422Z" fill="black"/>
<path d="M47.3134 8.07422H46.5308V8.8569H47.3134V8.07422Z" fill="black"/>
<path d="M50.4443 8.07422H49.6616V8.8569H50.4443V8.07422Z" fill="black"/>
<path d="M51.227 8.07422H50.4443V8.8569H51.227V8.07422Z" fill="black"/>
<path d="M53.5747 8.07422H52.792V8.8569H53.5747V8.07422Z" fill="black"/>
<path d="M54.3574 8.07422H53.5747V8.8569H54.3574V8.07422Z" fill="black"/>
<path d="M55.9228 8.07422H55.1401V8.8569H55.9228V8.07422Z" fill="black"/>
<path d="M56.7046 8.07422H55.9219V8.8569H56.7046V8.07422Z" fill="black"/>
<path d="M57.4873 8.07422H56.7046V8.8569H57.4873V8.07422Z" fill="black"/>
<path d="M60.6181 8.07422H59.8354V8.8569H60.6181V8.07422Z" fill="black"/>
<path d="M61.4008 8.07422H60.6182V8.8569H61.4008V8.07422Z" fill="black"/>
<path d="M44.9653 8.85645H44.1826V9.63913H44.9653V8.85645Z" fill="black"/>
<path d="M45.748 8.85645H44.9653V9.63913H45.748V8.85645Z" fill="black"/>
<path d="M47.3134 8.85645H46.5308V9.63913H47.3134V8.85645Z" fill="black"/>
<path d="M52.0097 8.85645H51.2271V9.63913H52.0097V8.85645Z" fill="black"/>
<path d="M54.3574 8.85645H53.5747V9.63913H54.3574V8.85645Z" fill="black"/>
<path d="M57.4873 8.85645H56.7046V9.63913H57.4873V8.85645Z" fill="black"/>
<path d="M61.4008 8.85645H60.6182V9.63913H61.4008V8.85645Z" fill="black"/>
<path d="M44.9653 9.63965H44.1826V10.4223H44.9653V9.63965Z" fill="black"/>
<path d="M47.3134 9.63965H46.5308V10.4223H47.3134V9.63965Z" fill="black"/>
<path d="M52.0097 9.63965H51.2271V10.4223H52.0097V9.63965Z" fill="black"/>
<path d="M52.7924 9.63965H52.0098V10.4223H52.7924V9.63965Z" fill="black"/>
<path d="M54.3574 9.63965H53.5747V10.4223H54.3574V9.63965Z" fill="black"/>
<path d="M55.1401 9.63965H54.3574V10.4223H55.1401V9.63965Z" fill="black"/>
<path d="M57.4873 9.63965H56.7046V10.4223H57.4873V9.63965Z" fill="black"/>
<path d="M58.27 9.63965H57.4873V10.4223H58.27V9.63965Z" fill="black"/>
<path d="M61.4008 9.63965H60.6182V10.4223H61.4008V9.63965Z" fill="black"/>
<path d="M44.9653 10.4219H44.1826V11.2046H44.9653V10.4219Z" fill="black"/>
<path d="M47.3134 10.4219H46.5308V11.2046H47.3134V10.4219Z" fill="black"/>
<path d="M52.7924 10.4219H52.0098V11.2046H52.7924V10.4219Z" fill="black"/>
<path d="M53.5747 10.4219H52.792V11.2046H53.5747V10.4219Z" fill="black"/>
<path d="M55.1401 10.4219H54.3574V11.2046H55.1401V10.4219Z" fill="black"/>
<path d="M58.27 10.4219H57.4873V11.2046H58.27V10.4219Z" fill="black"/>
<path d="M61.4008 10.4219H60.6182V11.2046H61.4008V10.4219Z" fill="black"/>
<path d="M62.1836 10.4219H61.4009V11.2046H62.1836V10.4219Z" fill="black"/>
<path d="M44.9653 11.2051H44.1826V11.9878H44.9653V11.2051Z" fill="black"/>
<path d="M47.3134 11.2051H46.5308V11.9878H47.3134V11.2051Z" fill="black"/>
<path d="M48.0962 11.2051H47.3135V11.9878H48.0962V11.2051Z" fill="black"/>
<path d="M54.3574 11.2051H53.5747V11.9878H54.3574V11.2051Z" fill="black"/>
<path d="M55.1401 11.2051H54.3574V11.9878H55.1401V11.2051Z" fill="black"/>
<path d="M58.27 11.2051H57.4873V11.9878H58.27V11.2051Z" fill="black"/>
<path d="M62.1836 11.2051H61.4009V11.9878H62.1836V11.2051Z" fill="black"/>
<path d="M44.9653 11.9873H44.1826V12.77H44.9653V11.9873Z" fill="black"/>
<path d="M48.0962 11.9873H47.3135V12.77H48.0962V11.9873Z" fill="black"/>
<path d="M55.1401 11.9873H54.3574V12.77H55.1401V11.9873Z" fill="black"/>
<path d="M55.9228 11.9873H55.1401V12.77H55.9228V11.9873Z" fill="black"/>
<path d="M58.27 11.9873H57.4873V12.77H58.27V11.9873Z" fill="black"/>
<path d="M62.1836 11.9873H61.4009V12.77H62.1836V11.9873Z" fill="black"/>
<path d="M44.9653 12.7705H44.1826V13.5532H44.9653V12.7705Z" fill="black"/>
<path d="M48.0962 12.7705H47.3135V13.5532H48.0962V12.7705Z" fill="black"/>
<path d="M56.7046 12.7705H55.9219V13.5532H56.7046V12.7705Z" fill="black"/>
<path d="M57.4873 12.7705H56.7046V13.5532H57.4873V12.7705Z" fill="black"/>
<path d="M58.27 12.7705H57.4873V13.5532H58.27V12.7705Z" fill="black"/>
<path d="M59.0527 12.7705H58.27V13.5532H59.0527V12.7705Z" fill="black"/>
<path d="M62.1836 12.7705H61.4009V13.5532H62.1836V12.7705Z" fill="black"/>
<path d="M44.1826 13.5527H43.3999V14.3354H44.1826V13.5527Z" fill="black"/>
<path d="M44.9653 13.5527H44.1826V14.3354H44.9653V13.5527Z" fill="black"/>
<path d="M45.748 13.5527H44.9653V14.3354H45.748V13.5527Z" fill="black"/>
<path d="M48.0962 13.5527H47.3135V14.3354H48.0962V13.5527Z" fill="black"/>
<path d="M59.0527 13.5527H58.27V14.3354H59.0527V13.5527Z" fill="black"/>
<path d="M59.8354 13.5527H59.0527V14.3354H59.8354V13.5527Z" fill="black"/>
<path d="M62.9658 13.5527H62.1831V14.3354H62.9658V13.5527Z" fill="black"/>
<path d="M63.7485 13.5527H62.9658V14.3354H63.7485V13.5527Z" fill="black"/>
<path d="M45.748 14.335H44.9653V15.1176H45.748V14.335Z" fill="black"/>
<path d="M59.8354 14.335H59.0527V15.1176H59.8354V14.335Z" fill="black"/>
<path d="M60.6181 14.335H59.8354V15.1176H60.6181V14.335Z" fill="black"/>
<path d="M63.7485 14.335H62.9658V15.1176H63.7485V14.335Z" fill="black"/>
<path d="M45.748 15.1182H44.9653V15.9008H45.748V15.1182Z" fill="black"/>
<path d="M60.6181 15.1182H59.8354V15.9008H60.6181V15.1182Z" fill="black"/>
<path d="M61.4008 15.1182H60.6182V15.9008H61.4008V15.1182Z" fill="black"/>
<path d="M63.7485 15.1182H62.9658V15.9008H63.7485V15.1182Z" fill="black"/>
<path d="M45.748 15.8994H44.9653V16.6821H45.748V15.8994Z" fill="black"/>
<path d="M63.7485 15.8994H62.9658V16.6821H63.7485V15.8994Z" fill="black"/>
<path d="M45.748 16.6826H44.9653V17.4653H45.748V16.6826Z" fill="black"/>
<path d="M63.7485 16.6826H62.9658V17.4653H63.7485V16.6826Z" fill="black"/>
<path d="M64.5312 16.6826H63.7485V17.4653H64.5312V16.6826Z" fill="black"/>
<path d="M45.748 17.4648H44.9653V18.2475H45.748V17.4648Z" fill="black"/>
<path d="M64.5312 17.4648H63.7485V18.2475H64.5312V17.4648Z" fill="black"/>
<path d="M64.5312 18.248H63.7485V19.0307H64.5312V18.248Z" fill="black"/>
<path d="M64.5312 19.0303H63.7485V19.8129H64.5312V19.0303Z" fill="black"/>
<path d="M64.5312 19.8135H63.7485V20.5962H64.5312V19.8135Z" fill="black"/>
<path d="M65.3139 19.8135H64.5312V20.5962H65.3139V19.8135Z" fill="black"/>
<path d="M65.3139 20.5957H64.5312V21.3784H65.3139V20.5957Z" fill="black"/>
<path d="M65.3139 21.3789H64.5312V22.1616H65.3139V21.3789Z" fill="black"/>
<path d="M65.3139 22.1611H64.5312V22.9438H65.3139V22.1611Z" fill="black"/>
<path d="M65.3139 22.9443H64.5312V23.727H65.3139V22.9443Z" fill="black"/>
<path d="M65.3139 23.7266H64.5312V24.5092H65.3139V23.7266Z" fill="black"/>
<path d="M66.0966 23.7266H65.314V24.5092H66.0966V23.7266Z" fill="black"/>
<path d="M66.0966 24.5088H65.314V25.2915H66.0966V24.5088Z" fill="black"/>
<path d="M66.0966 25.292H65.314V26.0747H66.0966V25.292Z" fill="black"/>
<path d="M65.3139 26.0742H64.5312V26.8569H65.3139V26.0742Z" fill="black"/>
<path d="M66.0966 26.0742H65.314V26.8569H66.0966V26.0742Z" fill="black"/>
<path d="M65.3139 26.8574H64.5312V27.6401H65.3139V26.8574Z" fill="black"/>
<path d="M44.1826 27.6396H43.3999V28.4223H44.1826V27.6396Z" fill="black"/>
<path d="M65.3139 27.6396H64.5312V28.4223H65.3139V27.6396Z" fill="black"/>
<path d="M44.1826 28.4229H43.3999V29.2055H44.1826V28.4229Z" fill="black"/>
<path d="M44.9653 28.4229H44.1826V29.2055H44.9653V28.4229Z" fill="black"/>
<path d="M65.3139 28.4229H64.5312V29.2055H65.3139V28.4229Z" fill="black"/>
<path d="M44.9653 29.2051H44.1826V29.9878H44.9653V29.2051Z" fill="black"/>
<path d="M45.748 29.2051H44.9653V29.9878H45.748V29.2051Z" fill="black"/>
<path d="M46.5307 29.2051H45.748V29.9878H46.5307V29.2051Z" fill="black"/>
<path d="M65.3139 29.2051H64.5312V29.9878H65.3139V29.2051Z" fill="black"/>
<path d="M46.5307 29.9883H45.748V30.771H46.5307V29.9883Z" fill="black"/>
<path d="M47.3134 29.9883H46.5308V30.771H47.3134V29.9883Z" fill="black"/>
<path d="M65.3139 29.9883H64.5312V30.771H65.3139V29.9883Z" fill="black"/>
<path d="M47.3134 30.7705H46.5308V31.5532H47.3134V30.7705Z" fill="black"/>
<path d="M48.0962 30.7705H47.3135V31.5532H48.0962V30.7705Z" fill="black"/>
<path d="M48.8789 30.7705H48.0962V31.5532H48.8789V30.7705Z" fill="black"/>
<path d="M65.3139 30.7705H64.5312V31.5532H65.3139V30.7705Z" fill="black"/>
<path d="M48.8789 31.5537H48.0962V32.3364H48.8789V31.5537Z" fill="black"/>
<path d="M49.6616 31.5537H48.8789V32.3364H49.6616V31.5537Z" fill="black"/>
<path d="M65.3139 31.5537H64.5312V32.3364H65.3139V31.5537Z" fill="black"/>
<path d="M49.6616 32.3359H48.8789V33.1186H49.6616V32.3359Z" fill="black"/>
<path d="M50.4443 32.3359H49.6616V33.1186H50.4443V32.3359Z" fill="black"/>
<path d="M65.3139 32.3359H64.5312V33.1186H65.3139V32.3359Z" fill="black"/>
<path d="M66.0966 32.3359H65.314V33.1186H66.0966V32.3359Z" fill="black"/>
<path d="M50.4443 33.1191H49.6616V33.9018H50.4443V33.1191Z" fill="black"/>
<path d="M51.227 33.1191H50.4443V33.9018H51.227V33.1191Z" fill="black"/>
<path d="M66.0966 33.1191H65.314V33.9018H66.0966V33.1191Z" fill="black"/>
<path d="M51.227 33.9014H50.4443V34.684H51.227V33.9014Z" fill="black"/>
<path d="M52.0097 33.9014H51.2271V34.684H52.0097V33.9014Z" fill="black"/>
<path d="M66.0966 33.9014H65.314V34.684H66.0966V33.9014Z" fill="black"/>
<path d="M52.0097 34.6836H51.2271V35.4663H52.0097V34.6836Z" fill="black"/>
<path d="M52.7924 34.6836H52.0098V35.4663H52.7924V34.6836Z" fill="black"/>
<path d="M66.0966 34.6836H65.314V35.4663H66.0966V34.6836Z" fill="black"/>
<path d="M66.8794 34.6836H66.0967V35.4663H66.8794V34.6836Z" fill="black"/>
<path d="M52.7924 35.4668H52.0098V36.2495H52.7924V35.4668Z" fill="black"/>
<path d="M53.5747 35.4668H52.792V36.2495H53.5747V35.4668Z" fill="black"/>
<path d="M66.8794 35.4668H66.0967V36.2495H66.8794V35.4668Z" fill="black"/>
<path d="M53.5747 36.249H52.792V37.0317H53.5747V36.249Z" fill="black"/>
<path d="M54.3574 36.249H53.5747V37.0317H54.3574V36.249Z" fill="black"/>
<path d="M66.8794 36.249H66.0967V37.0317H66.8794V36.249Z" fill="black"/>
<path d="M67.6621 36.249H66.8794V37.0317H67.6621V36.249Z" fill="black"/>
<path d="M54.3574 37.0322H53.5747V37.8149H54.3574V37.0322Z" fill="black"/>
<path d="M55.1401 37.0322H54.3574V37.8149H55.1401V37.0322Z" fill="black"/>
<path d="M67.6621 37.0322H66.8794V37.8149H67.6621V37.0322Z" fill="black"/>
<path d="M77.4557 20.3387C77.7773 20.476 78.0201 20.6584 78.183 20.8858C78.3459 21.1132 78.4279 21.3816 78.4279 21.692C78.4279 22.1469 78.2834 22.5126 77.9945 22.7902C77.7056 23.0679 77.3225 23.2072 76.8451 23.2072C76.4558 23.2072 76.13 23.1078 75.8667 22.9081C75.6035 22.7093 75.4252 22.4255 75.333 22.0588L75.8667 21.7955C75.9385 22.0946 76.0573 22.3211 76.2233 22.4757C76.3882 22.6294 76.5962 22.7073 76.8461 22.7073C77.1412 22.7073 77.3799 22.6222 77.5612 22.4522C77.7435 22.2821 77.8347 22.0608 77.8347 21.7894C77.8347 21.5691 77.7712 21.3765 77.6442 21.2136C77.5171 21.0507 77.3256 20.9124 77.0684 20.7997L76.4681 20.5436C76.1393 20.4064 75.8944 20.2301 75.7336 20.014C75.5727 19.7978 75.4918 19.5397 75.4918 19.2375C75.4918 18.8861 75.6219 18.5962 75.8831 18.3667C76.1444 18.1372 76.4773 18.0225 76.882 18.0225C77.1791 18.0225 77.4362 18.086 77.6534 18.212C77.8706 18.338 78.0396 18.5234 78.1615 18.7693L77.6759 19.0797C77.5653 18.8881 77.4424 18.7457 77.3051 18.6525C77.1678 18.5593 77.0121 18.5122 76.8389 18.5122C76.6187 18.5122 76.4374 18.5798 76.297 18.715C76.1567 18.8502 76.086 19.0223 76.086 19.2313C76.086 19.4065 76.1403 19.5591 76.2478 19.6872C76.3554 19.8152 76.5234 19.929 76.7508 20.0283L77.4567 20.3387H77.4557Z" fill="black"/>
<path d="M80.5938 18.1406H81.1879V21.215C81.1879 21.7149 81.2945 22.0817 81.5065 22.3153C81.7196 22.5488 82.0526 22.6666 82.5074 22.6666C82.9623 22.6666 83.2952 22.5499 83.5083 22.3153C83.7214 22.0817 83.8269 21.7149 83.8269 21.215V18.1406H84.4242V21.215C84.4242 21.8829 84.2654 22.3829 83.9468 22.7158C83.6282 23.0477 83.1487 23.2137 82.5074 23.2137C81.8661 23.2137 81.3898 23.0477 81.0711 22.7158C80.7525 22.3839 80.5938 21.884 80.5938 21.215V18.1406Z" fill="black"/>
<path d="M86.5352 23.0815V18.1406H87.116V20.3381L89.1915 18.1406H89.8933L87.7737 20.3647L90.1023 23.0815H89.3432L87.116 20.4221V23.0815H86.5352Z" fill="black"/>
<path d="M97.4446 20.6222C97.4446 20.9756 97.379 21.3086 97.2489 21.621C97.1188 21.9335 96.9283 22.2121 96.6783 22.4549C96.4284 22.6977 96.1405 22.8852 95.8157 23.0173C95.49 23.1485 95.1529 23.2151 94.8046 23.2151C94.4563 23.2151 94.1193 23.1495 93.7966 23.0173C93.4739 22.8852 93.187 22.6987 92.937 22.4549C92.685 22.2101 92.4935 21.9304 92.3613 21.6179C92.2291 21.3055 92.1636 20.9736 92.1636 20.6222C92.1636 20.2708 92.2291 19.9358 92.3613 19.6213C92.4935 19.3078 92.685 19.0281 92.937 18.7823C93.185 18.5415 93.4708 18.3561 93.7945 18.225C94.1193 18.0949 94.4553 18.0293 94.8046 18.0293C95.1539 18.0293 95.4941 18.0949 95.8198 18.225C96.1456 18.3551 96.4314 18.5415 96.6794 18.7823C96.9293 19.0251 97.1199 19.3037 97.25 19.6172C97.3801 19.9307 97.4456 20.2657 97.4456 20.6212L97.4446 20.6222ZM94.8036 22.6598C95.074 22.6598 95.3312 22.6086 95.575 22.5061C95.8198 22.4037 96.0391 22.2552 96.2358 22.0585C96.4294 21.8648 96.5769 21.6456 96.6783 21.4008C96.7797 21.1559 96.8299 20.8957 96.8299 20.6212C96.8299 20.3466 96.7787 20.0813 96.6763 19.8313C96.5738 19.5813 96.4273 19.3611 96.2358 19.1695C96.0421 18.9759 95.8229 18.8284 95.5791 18.7269C95.3343 18.6255 95.0761 18.5753 94.8036 18.5753C94.5311 18.5753 94.2688 18.6255 94.023 18.7269C93.7771 18.8284 93.5599 18.9759 93.3714 19.1695C93.1778 19.3652 93.0303 19.5865 92.9288 19.8344C92.8274 20.0823 92.7772 20.3435 92.7772 20.6212C92.7772 20.8988 92.8274 21.1549 92.9278 21.3977C93.0282 21.6405 93.1757 21.8607 93.3724 22.0595C93.5701 22.2572 93.7904 22.4068 94.0332 22.5082C94.275 22.6096 94.5321 22.6598 94.8046 22.6598H94.8036Z" fill="black"/>
<path d="M104.863 20.6222C104.863 20.9756 104.797 21.3086 104.667 21.621C104.537 21.9335 104.346 22.2121 104.096 22.4549C103.846 22.6977 103.558 22.8852 103.234 23.0173C102.908 23.1485 102.571 23.2151 102.223 23.2151C101.874 23.2151 101.537 23.1495 101.215 23.0173C100.892 22.8852 100.605 22.6987 100.355 22.4549C100.103 22.2101 99.9114 21.9304 99.7793 21.6179C99.6471 21.3055 99.5815 20.9736 99.5815 20.6222C99.5815 20.2708 99.6471 19.9358 99.7793 19.6213C99.9114 19.3078 100.103 19.0281 100.355 18.7823C100.603 18.5415 100.889 18.3561 101.212 18.225C101.537 18.0949 101.873 18.0293 102.223 18.0293C102.572 18.0293 102.912 18.0949 103.238 18.225C103.564 18.3551 103.849 18.5415 104.097 18.7823C104.347 19.0251 104.538 19.3037 104.668 19.6172C104.798 19.9307 104.864 20.2657 104.864 20.6212L104.863 20.6222ZM102.222 22.6598C102.492 22.6598 102.749 22.6086 102.993 22.5061C103.238 22.4037 103.457 22.2552 103.654 22.0585C103.847 21.8648 103.995 21.6456 104.096 21.4008C104.198 21.1559 104.248 20.8957 104.248 20.6212C104.248 20.3466 104.197 20.0813 104.094 19.8313C103.992 19.5813 103.845 19.3611 103.654 19.1695C103.46 18.9759 103.241 18.8284 102.997 18.7269C102.752 18.6255 102.494 18.5753 102.222 18.5753C101.949 18.5753 101.687 18.6255 101.441 18.7269C101.195 18.8284 100.978 18.9759 100.789 19.1695C100.596 19.3652 100.448 19.5865 100.347 19.8344C100.245 20.0823 100.195 20.3435 100.195 20.6212C100.195 20.8988 100.245 21.1549 100.346 21.3977C100.446 21.6405 100.594 21.8607 100.79 22.0595C100.988 22.2572 101.208 22.4068 101.451 22.5082C101.693 22.6096 101.95 22.6598 102.223 22.6598H102.222Z" fill="black"/>
<path d="M106.918 23.0819V17.9453L110.533 21.8946V18.141H111.094V23.2745L107.478 19.3693V23.0819H106.918Z" fill="black"/>
<path d="M113.233 22.7512C113.233 22.6406 113.272 22.5463 113.351 22.4674C113.43 22.3885 113.524 22.3496 113.635 22.3496C113.746 22.3496 113.844 22.3885 113.924 22.4664C114.004 22.5443 114.044 22.6395 114.044 22.7512C114.044 22.8629 114.005 22.954 113.926 23.0298C113.847 23.1057 113.751 23.1425 113.636 23.1425C113.521 23.1425 113.428 23.1046 113.351 23.0298C113.273 22.954 113.234 22.8618 113.234 22.7512H113.233Z" fill="black"/>
<path d="M116.194 23.0815V18.1406H116.781V22.5212H118.648V23.0815H116.194Z" fill="black"/>
<path d="M126.02 20.6222C126.02 20.9756 125.954 21.3086 125.824 21.621C125.694 21.9335 125.503 22.2121 125.254 22.4549C125.004 22.6977 124.716 22.8852 124.391 23.0173C124.065 23.1485 123.728 23.2151 123.38 23.2151C123.031 23.2151 122.694 23.1495 122.372 23.0173C122.049 22.8852 121.762 22.6987 121.512 22.4549C121.26 22.2101 121.069 21.9304 120.936 21.6179C120.804 21.3055 120.739 20.9736 120.739 20.6222C120.739 20.2708 120.804 19.9358 120.936 19.6213C121.069 19.3078 121.26 19.0281 121.512 18.7823C121.76 18.5415 122.046 18.3561 122.37 18.225C122.694 18.0949 123.03 18.0293 123.38 18.0293C123.729 18.0293 124.069 18.0949 124.395 18.225C124.721 18.3551 125.007 18.5415 125.255 18.7823C125.505 19.0251 125.695 19.3037 125.825 19.6172C125.955 19.9307 126.021 20.2657 126.021 20.6212L126.02 20.6222ZM123.379 22.6598C123.649 22.6598 123.906 22.6086 124.15 22.5061C124.395 22.4037 124.614 22.2552 124.811 22.0585C125.005 21.8648 125.152 21.6456 125.254 21.4008C125.355 21.1559 125.405 20.8957 125.405 20.6212C125.405 20.3466 125.354 20.0813 125.251 19.8313C125.149 19.5813 125.003 19.3611 124.811 19.1695C124.617 18.9759 124.398 18.8284 124.154 18.7269C123.909 18.6255 123.651 18.5753 123.379 18.5753C123.106 18.5753 122.844 18.6255 122.598 18.7269C122.352 18.8284 122.135 18.9759 121.947 19.1695C121.753 19.3652 121.605 19.5865 121.504 19.8344C121.403 20.0823 121.352 20.3435 121.352 20.6212C121.352 20.8988 121.403 21.1549 121.503 21.3977C121.603 21.6405 121.751 21.8607 121.948 22.0595C122.145 22.2572 122.366 22.4068 122.608 22.5082C122.85 22.6096 123.107 22.6598 123.38 22.6598H123.379Z" fill="black"/>
<path d="M130.131 23.2409L128.042 18.1074H128.68L130.132 21.8876L131.576 18.1074H132.21L130.131 23.2409Z" fill="black"/>
<path d="M134.286 23.0815V18.1406H136.891V18.6774H134.873V20.0953H136.891V20.6423H134.873V22.5355H136.891V23.0826H134.286V23.0815Z" fill="black"/>
</svg>
