<svg width="51" height="51" viewBox="0 0 51 51" fill="none" xmlns="http://www.w3.org/2000/svg">
<path fill-rule="evenodd" clip-rule="evenodd" d="M38.8838 35.8548C41.5027 26.0811 35.2768 15.9539 25.0201 13.2077C13.4999 10.1215 -2.8287 18.1256 0.597395 27.8049C1.63143 30.7292 3.65901 31.4225 7.83836 31.4819L8.12995 31.4873C11.0998 31.5223 12.1014 31.757 12.6603 32.6635C13.238 33.6023 13.2434 34.7029 12.8061 37.487C12.6252 38.6254 12.5685 39.0219 12.501 39.6289C12.1095 43.1359 12.6819 45.7635 14.9038 48.1536C21.8802 55.664 35.9302 46.8615 38.8838 35.8548ZM3.14064 26.9066C0.689189 19.9735 14.5259 13.1915 24.3209 15.8136C33.1683 18.1822 38.5004 26.8553 36.2758 35.1561C33.7811 44.4524 22.0017 51.8333 16.8828 46.3246C15.2791 44.5981 14.8714 42.7286 15.1819 39.9311C15.2467 39.378 15.3007 39.0031 15.4735 37.9078C16.0135 34.4682 16.0054 32.9548 14.9605 31.2526C13.7051 29.2131 12.1014 28.8408 8.16504 28.7923L7.87616 28.7869C4.74705 28.7437 3.65901 28.3714 3.14064 26.9066Z" fill="black"/>
<path d="M11.9534 25.5118C11.0584 25.5118 10.2 25.1565 9.56707 24.5241C8.93417 23.8917 8.57861 23.034 8.57861 22.1396C8.57861 21.2453 8.93417 20.3876 9.56707 19.7552C10.2 19.1228 11.0584 18.7675 11.9534 18.7675C12.8485 18.7675 13.7069 19.1228 14.3398 19.7552C14.9727 20.3876 15.3282 21.2453 15.3282 22.1396C15.3282 23.034 14.9727 23.8917 14.3398 24.5241C13.7069 25.1565 12.8485 25.5118 11.9534 25.5118ZM22.7528 25.5118C21.8577 25.5118 20.9993 25.1565 20.3664 24.5241C19.7335 23.8917 19.378 23.034 19.378 22.1396C19.378 21.2453 19.7335 20.3876 20.3664 19.7552C20.9993 19.1228 21.8577 18.7675 22.7528 18.7675C23.6478 18.7675 24.5062 19.1228 25.1391 19.7552C25.772 20.3876 26.1276 21.2453 26.1276 22.1396C26.1276 23.034 25.772 23.8917 25.1391 24.5241C24.5062 25.1565 23.6478 25.5118 22.7528 25.5118ZM29.5024 33.6049C28.6073 33.6049 27.7489 33.2496 27.116 32.6172C26.4831 31.9848 26.1276 31.1271 26.1276 30.2327C26.1276 29.3384 26.4831 28.4807 27.116 27.8483C27.7489 27.2159 28.6073 26.8606 29.5024 26.8606C30.3974 26.8606 31.2558 27.2159 31.8887 27.8483C32.5216 28.4807 32.8772 29.3384 32.8772 30.2327C32.8772 31.1271 32.5216 31.9848 31.8887 32.6172C31.2558 33.2496 30.3974 33.6049 29.5024 33.6049ZM25.4526 43.0468C24.5576 43.0468 23.6992 42.6915 23.0663 42.0591C22.4334 41.4267 22.0778 40.569 22.0778 39.6747C22.0778 38.7803 22.4334 37.9226 23.0663 37.2902C23.6992 36.6578 24.5576 36.3026 25.4526 36.3026C26.3477 36.3026 27.2061 36.6578 27.8389 37.2902C28.4718 37.9226 28.8274 38.7803 28.8274 39.6747C28.8274 40.569 28.4718 41.4267 27.8389 42.0591C27.2061 42.6915 26.3477 43.0468 25.4526 43.0468ZM35.226 9.60884C35.5461 9.43746 35.8976 9.33239 36.2593 9.2999C36.621 9.26741 36.9856 9.30817 37.3311 9.41974C37.6767 9.53132 37.9962 9.71142 38.2705 9.94925C38.5448 10.1871 38.7683 10.4778 38.9275 10.8039L49.9779 33.4646C50.1624 33.8719 50.1848 34.3341 50.0404 34.7573C49.896 35.1805 49.5958 35.5329 49.2007 35.7428C48.8057 35.9527 48.3454 36.0044 47.9136 35.8874C47.4817 35.7704 47.1106 35.4935 46.8758 35.1129L34.165 13.3425C33.983 13.0291 33.8661 12.6823 33.8212 12.3228C33.7763 11.9633 33.8043 11.5984 33.9036 11.25C34.0028 10.9015 34.1713 10.5766 34.399 10.2947C34.6267 10.0127 34.9089 9.77946 35.2287 9.60884" fill="black"/>
<path fill-rule="evenodd" clip-rule="evenodd" d="M30.2793 9.28248C31.5914 11.7509 33.8026 12.4415 35.9409 11.3058C38.0764 10.1727 38.7433 7.95252 37.4285 5.48412C35.9274 2.65694 32.7091 0.0941229 30.5763 1.22446C28.4434 2.35479 28.7728 6.45529 30.2793 9.28248ZM32.6606 8.01456C32.1846 7.05456 31.8916 6.01442 31.7966 4.94728C31.7571 4.50098 31.7735 4.0515 31.8452 3.60922L31.8938 3.6335C32.0288 3.69825 32.4473 3.89248 32.9818 4.31872C33.7972 4.96886 34.6071 5.92655 35.0445 6.74934C35.6628 7.90935 35.4873 8.49206 34.6719 8.92639C33.862 9.35802 33.2788 9.17457 32.6606 8.01726" fill="black"/>
</svg>
