<svg width="60" height="68" viewBox="0 0 60 68" fill="none" xmlns="http://www.w3.org/2000/svg">
<path fillRule="evenodd" clipRule="evenodd" d="M28.245 6.17437C29.3766 5.69709 30.6234 5.69709 31.755 6.17437L49.255 13.5587C50.2083 13.9608 51.0297 14.6807 51.6096 15.6223C52.1895 16.5638 52.5001 17.6821 52.5 18.8276V33.9142C52.5001 38.6161 51.3366 43.2251 49.1398 47.2248C46.9431 51.2245 43.7999 54.4568 40.0625 56.5596L31.6775 61.2771C31.1567 61.5703 30.5823 61.7229 30 61.7229C29.4177 61.7229 28.8433 61.5703 28.3225 61.2771L19.9375 56.5596C16.2001 54.4568 13.0569 51.2245 10.8602 47.2248C8.66343 43.2251 7.49991 38.6161 7.5 33.9142V18.8276C7.49987 17.6821 7.81051 16.5638 8.39038 15.6223C8.97026 14.6807 9.79173 13.9608 10.745 13.5587L28.245 6.17437ZM30 11.4433L12.5 18.8276V33.9142C12.5006 37.5709 13.406 41.1551 15.1148 44.2654C16.8236 47.3757 19.2683 49.8891 22.175 51.5242L30 55.9323V11.4433Z" fill="#33775A"/>
</svg>
