<svg width="114" height="60" viewBox="0 0 114 60" fill="none" xmlns="http://www.w3.org/2000/svg">
<path fill-rule="evenodd" clip-rule="evenodd" d="M54.2105 33.877C55.0932 35.5055 56.1423 37.0133 57.319 38.3911C60.0112 41.5458 63.3738 44.0288 66.9359 45.8199C71.6889 48.1965 77.1632 49.7929 82.7241 50.1229C88.2581 50.4492 93.88 49.5204 98.9516 46.8259C100.64 45.9321 102.305 44.8331 103.898 43.6195C105.49 42.4079 107.015 41.0836 108.348 39.5883L111.06 36.2409L112.169 34.6428L112.23 34.6364L112.222 34.6302C112.175 34.5784 112.177 34.49 112.227 34.4348L112.458 34.6469C112.486 34.9449 112.42 35.258 112.303 35.583C112.153 36.0073 111.9 36.4077 111.735 36.7435C111.443 37.2782 111.145 37.8044 110.816 38.3144C110.325 39.0816 109.779 39.8034 109.222 40.5078C107.887 42.1579 106.373 43.6859 104.722 45.0103C103.077 46.328 101.301 47.4329 99.5272 48.3674C94.2107 51.1607 88.3287 52.1203 82.5434 51.7471C76.8157 51.3789 71.1841 49.7034 66.2988 47.2292C62.5951 45.36 59.119 42.751 56.3067 39.4798C55.0747 38.0448 53.97 36.4829 53.0322 34.7964C43.9198 41.531 33.272 40.4863 24.5604 34.466C20.131 31.4053 16.1329 27.1057 13.2751 21.8245C10.5553 16.8021 8.8956 10.9319 8.46426 4.71683C8.4437 4.52832 8.5658 4.34622 8.73655 4.31035C8.90753 4.27372 9.06225 4.39847 9.08281 4.58698C9.9618 10.4907 12.143 15.8354 14.994 20.5182C17.9287 25.3382 21.6168 29.4402 25.8303 32.2998C33.8678 37.7557 43.6186 38.8541 51.9612 32.6453C51.2534 31.0507 50.6922 29.3597 50.3042 27.569C49.7684 25.0995 49.5869 21.5582 50.5244 18.7658C51.2197 16.6925 52.5081 15.0134 54.6721 14.3128C56.8267 13.6055 58.7001 14.2885 59.9889 15.6944C61.2574 17.0763 61.9387 19.1961 61.7437 21.4474C61.5626 23.5533 60.8188 25.582 59.7649 27.4345C58.7448 29.2224 57.4273 30.8395 56.0745 32.1961C55.4622 32.7978 54.8404 33.3563 54.2105 33.877ZM53.1602 31.6963C52.5438 30.2438 52.0578 28.7091 51.7196 27.0922C51.2595 24.8932 51.0623 21.7398 51.9302 19.2727C52.4605 17.7665 53.4185 16.5432 55.0052 16.0761C56.5144 15.6363 57.8045 16.1429 58.6713 17.1545C59.5526 18.1844 59.9848 19.735 59.7979 21.3517C59.5948 23.0851 58.9108 24.7254 58.0037 26.2261C57.062 27.7789 55.8695 29.1751 54.6477 30.3422C54.1587 30.8233 53.6629 31.2728 53.1602 31.6963Z" fill="black"/>
<path fill-rule="evenodd" clip-rule="evenodd" d="M9.58553 4.74237L9.54612 5.51424C9.31271 8.02467 9.10231 10.5392 8.71387 13.0389C8.54559 14.1239 8.27623 15.15 8.10309 16.2361C8.10106 16.4322 7.9567 16.5996 7.78089 16.6084C7.60651 16.6201 7.46671 16.4699 7.46875 16.2739C7.32236 15.1832 7.15976 14.1383 7.13779 13.0282C7.08398 10.5324 7.42632 8.01951 7.50451 5.51473C7.51291 5.37009 7.5839 3.3259 7.66887 2.51676C7.78564 1.38467 8.70866 1.09639 8.81438 1.09713C8.88253 1.09695 9.45459 1.28583 10.0576 1.98429C11.3251 3.45352 14.2995 7.24646 14.6741 7.67667L16.2144 9.52527C17.0052 10.3283 16.6677 11.2389 16.1799 11.2198C16.0036 11.2144 15.572 11.066 15.231 10.6793L13.4916 9.0303C13.175 8.70852 11.0921 6.38789 9.58553 4.74237Z" fill="black"/>
</svg>
